<?xml version="1.0" encoding="utf-8"?>
<!-- Generator: Adobe Illustrator 19.0.0, SVG Export Plug-In . SVG Version: 6.00 Build 0)  -->
<svg version="1.1" id="Layer_1" xmlns="http://www.w3.org/2000/svg" xmlns:xlink="http://www.w3.org/1999/xlink" x="0px" y="0px"
	 viewBox="0 0 224 346.5" style="enable-background:new 0 0 224 346.5;" xml:space="preserve">
<style type="text/css">
	.st0{fill:none;stroke:#000000;stroke-miterlimit:10;}
	.st1{fill:#FFFFFF;stroke:#898989;stroke-width:3;stroke-miterlimit:10;}
	.st2{fill:none;stroke:#898989;stroke-width:3;stroke-miterlimit:10;}
	.st3{fill:#48D1DE;stroke:#898989;stroke-width:3;stroke-miterlimit:10;}
	.st4{fill:#86DC98;stroke:#898989;stroke-width:3;stroke-miterlimit:10;}
	.st5{fill:none;stroke:#F9F7F7;stroke-width:3;stroke-linecap:round;stroke-miterlimit:10;}
	.st6{fill:#48DEBF;stroke:#898989;stroke-width:3;stroke-miterlimit:10;}
	.st7{fill:none;stroke:#898989;stroke-width:2;stroke-miterlimit:10;}
	.st8{fill:#D1D1D4;}
</style>
<path class="st0" d="M-108,137.8"/>
<path class="st0" d="M-83.2,177.4"/>
<g>
	<rect x="82.2" y="241.4" class="st1" width="74.3" height="52.6"/>
	<rect x="76.7" y="233.2" class="st1" width="85.3" height="12.7"/>
	<rect x="113" y="233.2" class="st2" width="12.7" height="60.8"/>
	<path class="st3" d="M80.5,130.4l3.2-5.6c0.3-0.5,1.1-0.5,1.4,0l3.2,5.6c0.3,0.5-0.1,1.2-0.7,1.2h-6.4
		C80.6,131.6,80.2,131,80.5,130.4z"/>
	<path class="st4" d="M138.5,123.9l3.2-5.6c0.3-0.5,1.1-0.5,1.4,0l3.2,5.6c0.3,0.5-0.1,1.2-0.7,1.2h-6.4
		C138.5,125.1,138.1,124.4,138.5,123.9z"/>
	<path class="st3" d="M105.3,87.4c0,18.5-13.9,39.6-24.9,39.6s-24.9-21.1-24.9-39.6s11.1-28.8,24.9-28.8S105.3,68.9,105.3,87.4z"/>
	<path class="st4" d="M167.3,80.8c0,18.5-13.9,39.6-24.9,39.6s-24.9-21.1-24.9-39.6s11.1-28.8,24.9-28.8S167.3,62.3,167.3,80.8z"/>
	<path class="st5" d="M85.1,66.5c-8.4-1-16,4.4-17.4,15.3"/>
	<path class="st5" d="M143.6,58.8c8.4-1,16,4.4,17.4,15.3"/>
	<path class="st1" d="M127.1,230.4c-2.1,2.4-6.4,3.6-7.8,2.3c-1.4-1.3-0.8-5.6,1.3-8c2.1-2.4,4.8-2.5,6.5-0.9S129.2,228,127.1,230.4
		z"/>
	<path class="st1" d="M115.8,224.6c2.2,2.3,3,6.6,1.6,8c-1.4,1.3-5.7,0.3-7.9-2c-2.2-2.3-2-5-0.3-6.6
		C111,222.3,113.6,222.3,115.8,224.6z"/>
	<line class="st2" x1="119.3" y1="232.7" x2="84.4" y2="130.6"/>
	<line class="st2" x1="119.3" y1="232.7" x2="113.3" y2="147.8"/>
	<path class="st6" d="M109.4,151.2l3.2-5.6c0.3-0.5,1.1-0.5,1.4,0l3.2,5.6c0.3,0.5-0.1,1.2-0.7,1.2h-6.4
		C109.5,152.4,109.1,151.7,109.4,151.2z"/>
	<line class="st2" x1="119.3" y1="232.7" x2="142.4" y2="124.1"/>
	<path class="st6" d="M138.2,108.2c0,18.5-13.9,39.6-24.9,39.6s-24.9-21.1-24.9-39.6s11.1-28.8,24.9-28.8S138.2,89.7,138.2,108.2z"
		/>
	<path class="st5" d="M113.3,88.4c-8.4-1-16,4.4-17.4,15.3"/>
	<animateMotion path="M 0 0 V 9 Z" dur="3s" repeatCount="indefinite" />
</g>
<circle class="st7" cx="123.6" cy="25.4" r="5.8"/>
<circle class="st7" cx="179.2" cy="98.7" r="5.8"/>
<circle class="st7" cx="38" cy="64.5" r="5.8"/>
<ellipse class="st8" cx="120.9" cy="316" rx="38.7" ry="3.3"><animateMotion path="M 0 0 V 3 Z" dur="3s" repeatCount="indefinite" /></ellipse>
<line class="st7" x1="197.7" y1="138.3" x2="186.6" y2="138.3">
<animateTransform attributeType="xml" attributeName="transform" type="rotate" from="360 192.15 138.33" to="0 192.15 138.33" dur="4s" additive="sum" repeatCount="indefinite" />
</line>
<line class="st7" x1="192.2" y1="132.8" x2="192.2" y2="143.9">
<animateTransform attributeType="xml" attributeName="transform" type="rotate" from="360 192.15 138.33" to="0 192.15 138.33" dur="4s" additive="sum" repeatCount="indefinite" />
</line>
<line class="st7" x1="178.9" y1="46.6" x2="167.9" y2="46.6">
<animateTransform attributeType="xml" attributeName="transform" type="rotate" from="0 173.4 46.6" to="360 173.4 46.6" dur="4s" additive="sum" repeatCount="indefinite" />
</line>
<line class="st7" x1="173.4" y1="41" x2="173.4" y2="52.1">
<animateTransform attributeType="xml" attributeName="transform" type="rotate" from="0 173.4 46.6" to="360 173.4 46.6" dur="4s" additive="sum" repeatCount="indefinite" />
</line>
<line class="st7" x1="82.3" y1="41" x2="71.2" y2="41">
<animateTransform attributeType="xml" attributeName="transform" type="rotate" from="360 76.7 41" to="0 76.7 41" dur="4s" additive="sum" repeatCount="indefinite" />
</line>
<line class="st7" x1="76.7" y1="35.5" x2="76.7" y2="46.6">
<animateTransform attributeType="xml" attributeName="transform" type="rotate" from="360 76.7 41" to="0 76.7 41" dur="4s" additive="sum" repeatCount="indefinite" />
</line>
<line class="st7" x1="43.5" y1="132.8" x2="32.4" y2="132.8">
<animateTransform attributeType="xml" attributeName="transform" type="rotate" from="360 38 132.8" to="0 38 132.8" dur="4s" additive="sum" repeatCount="indefinite" />
</line>
<line class="st7" x1="38" y1="127.3" x2="38" y2="138.3">
<animateTransform attributeType="xml" attributeName="transform" type="rotate" from="360 38 132.8" to="0 38 132.8" dur="4s" additive="sum" repeatCount="indefinite" />
</line>
</svg>
