<?xml version="1.0" encoding="utf-8"?>
<!-- Generator: Adobe Illustrator 19.0.0, SVG Export Plug-In . SVG Version: 6.00 Build 0)  -->
<svg version="1.1" id="Layer_1" xmlns="http://www.w3.org/2000/svg" xmlns:xlink="http://www.w3.org/1999/xlink" x="0px" y="0px"
	 viewBox="0 0 1657 443" style="enable-background:new 0 0 1657 443;" xml:space="preserve">
<style type="text/css">
	.st0{fill:url(#XMLID_5_);}
	.st1{fill:url(#XMLID_6_);}
	.st2{fill:#4F4193;}
	.st3{fill:#F9F9FA;}
	.st4{fill:none;stroke:#F3F9F3;stroke-width:40;}
	.st5{fill:#F7FBFC;stroke:#F7F9F9;stroke-width:18;}
</style>
<linearGradient id="XMLID_5_" gradientUnits="userSpaceOnUse" x1="825.8346" y1="3.5421" x2="831.2316" y2="444.8666">
	<stop  offset="0" style="stop-color:#342464"/>
	<stop  offset="1" style="stop-color:#71398C"/>
</linearGradient>
<rect id="XMLID_79_" class="st0" width="1657" height="443"/>
<image style="overflow:visible;" width="1600" height="1920" id="XMLID_81_" xlink:href="59cfbf79d3b1936210a5ddab.png"  transform="matrix(0.2119 0 0 0.2229 1025 0)">
</image>
<linearGradient id="XMLID_6_" gradientUnits="userSpaceOnUse" x1="828.5" y1="417" x2="828.5" y2="443">
	<stop  offset="0" style="stop-color:#342464"/>
	<stop  offset="1" style="stop-color:#71398C"/>
</linearGradient>
<rect id="XMLID_82_" y="417" class="st1" width="1657" height="26"/>
<path id="XMLID_83_" class="st2" d="M205.6,90h-127c-2.2,0-4,1.8-4,4v2c0,2.2,1.8,4,4,4h127c2.2,0,4-1.8,4-4v-2
	C209.6,91.8,207.8,90,205.6,90z" > 
	<animate attributeType="XML" attributeName="d" from="-100" to="120"
        dur="1s" repeatCount="indefinite"></animate>
	</path>
<path id="XMLID_87_" class="st2" d="M613,51.8H509c-2.2,0-4,1.8-4,4v1.5c0,2.2,1.8,4,4,4h104c2.2,0,4-1.8,4-4v-1.5
	C617,53.5,615.2,51.8,613,51.8z"/>
<path id="XMLID_88_" class="st2" d="M757.5,130.3h-117c-2.2,0-4,1.8-4,4l0,0c0,2.2,1.8,4,4,4h117c2.2,0,4-1.8,4-4l0,0
	C761.5,132,759.7,130.3,757.5,130.3z"/>
<path id="XMLID_94_" class="st2" d="M433.5,154h-113c-2.2,0-4,1.8-4,4l0,0c0,2.2,1.8,4,4,4h113c2.2,0,4-1.8,4-4l0,0
	C437.5,155.8,435.7,154,433.5,154z"/>
<path id="XMLID_89_" class="st2" d="M978,33H865c-2.2,0-4,1.8-4,4v4c0,2.2,1.8,4,4,4h113c2.2,0,4-1.8,4-4v-4
	C982,34.8,980.2,33,978,33z"/>
<path id="XMLID_90_" class="st2" d="M329,27h-96c-2.2,0-4,1.8-4,4v0c0,2.2,1.8,4,4,4h96c2.2,0,4-1.8,4-4v0C333,28.8,331.2,27,329,27
	z"/>
<path id="XMLID_91_" class="st2" d="M1411,31.5h-71c-2.2,0-4,1.8-4,4v1c0,2.2,1.8,4,4,4h71c2.2,0,4-1.8,4-4v-1
	C1415,33.3,1413.2,31.5,1411,31.5z"/>
<path id="XMLID_95_" class="st2" d="M1633,102h-127c-2.2,0-4,1.8-4,4v0c0,2.2,1.8,4,4,4h127c2.2,0,4-1.8,4-4v0
	C1637,103.8,1635.2,102,1633,102z"/>
<path id="XMLID_92_" class="st2" d="M1392,150h-108c-2.2,0-4,1.8-4,4l0,0c0,2.2,1.8,4,4,4h108c2.2,0,4-1.8,4-4l0,0
	C1396,151.8,1394.2,150,1392,150z"/>
<path id="XMLID_93_" class="st2" d="M1075.5,119.8h-79c-2.2,0-4,1.8-4,4v2.5c0,2.2,1.8,4,4,4h79c2.2,0,4-1.8,4-4v-2.5
	C1079.5,121.5,1077.7,119.8,1075.5,119.8z"/>




<path id="XMLID_104_" class="st2" d="M938.9,124.5c0-9.7-5.9-17.5-13.1-17.5c-1.1,0-2.2,0.2-3.3,0.6C920,98,912.2,91.1,903,91.1
	c-3.2,0-6.3,0.9-9,2.4c-2.8-9-10.4-15.5-19.2-15.5c-9.7,0-17.7,7.7-19.9,17.9c-1.3,0-2.7,0.2-3.9,0.4c-3.4-3.2-7.9-5.2-12.9-5.2
	c-8.3,0-15.3,5.4-17.9,13c-0.4,0-0.7,0-1.1,0c-11.2,0-20.3,8.4-20.3,18.8c0,9.2,7.1,16.8,16.4,18.5v0.6h110.7v0
	C933.1,141.9,938.9,134.1,938.9,124.5z">
	<animate  fill="remove" attributeName="d" accumulate="none" dur="1" repeatCount="indefinite" restart="always" calcMode="linear" additive="replace" keyTimes="0;1" begin="-0.33s" values="95;35">
		</animate>
	</path>
<path id="XMLID_96_" class="st2" d="M581,195.6c0-5.7-4.2-10.4-9.4-10.4c-0.8,0-1.6,0.1-2.4,0.3c-1.8-5.6-7.4-9.8-13.9-9.8
	c-2.3,0-4.5,0.5-6.5,1.4c-2-5.4-7.4-9.2-13.8-9.2c-6.9,0-12.7,4.5-14.2,10.6c-1,0-1.9,0.1-2.8,0.2c-2.4-1.9-5.7-3.1-9.2-3.1
	c-5.9,0-10.9,3.2-12.8,7.7c-0.3,0-0.5,0-0.8,0c-8,0-14.5,5-14.5,11.2c0,5.4,5,10,11.7,11v0.3h79.2v0
	C576.8,205.9,581,201.3,581,195.6z"/>
<path id="XMLID_97_" class="st2" d="M142.1,170.6c0-5.7-4.2-10.4-9.4-10.4c-0.8,0-1.6,0.1-2.4,0.3c-1.8-5.6-7.4-9.8-13.9-9.8
	c-2.3,0-4.5,0.5-6.5,1.4c-2-5.4-7.4-9.2-13.8-9.2c-6.9,0-12.7,4.5-14.2,10.6c-1,0-1.9,0.1-2.8,0.2c-2.4-1.9-5.7-3.1-9.2-3.1
	c-5.9,0-10.9,3.2-12.8,7.7c-0.3,0-0.5,0-0.8,0c-8,0-14.5,5-14.5,11.2c0,5.4,5,10,11.7,11v0.3h79.2v0
	C138,180.9,142.1,176.3,142.1,170.6z"/>
<path id="XMLID_98_" class="st2" d="M1619.6,44.6c0-5.7-4.2-10.4-9.4-10.4c-0.8,0-1.6,0.1-2.4,0.3c-1.8-5.6-7.4-9.8-13.9-9.8
	c-2.3,0-4.5,0.5-6.5,1.4c-2-5.4-7.4-9.2-13.8-9.2c-6.9,0-12.7,4.5-14.2,10.6c-1,0-1.9,0.1-2.8,0.2c-2.4-1.9-5.7-3.1-9.2-3.1
	c-5.9,0-10.9,3.2-12.8,7.7c-0.3,0-0.5,0-0.8,0c-8,0-14.5,5-14.5,11.2c0,5.4,5,10,11.7,11V55h79.2v0
	C1615.5,54.9,1619.6,50.3,1619.6,44.6z"/>
<circle id="XMLID_86_" class="st3" cx="91.5" cy="29.3" r="4">
<animate  fill="remove" attributeName="opacity" accumulate="none" dur="1" repeatCount="indefinite" restart="always" calcMode="spline" additive="replace" keySplines="0.2 0 0.8 1" keyTimes="0;1" begin="-0.5s" values="1;0">
	</animate>
	</circle>

<circle id="XMLID_100_" class="st3" cx="476.8" cy="106" r="4">
<animate  fill="remove" attributeName="opacity" accumulate="none" dur="1" repeatCount="indefinite" restart="always" calcMode="spline" additive="replace" keySplines="0.2 0 0.8 1" keyTimes="0;1" begin="-1s" values="1;0">
	</animate></circle>

<circle id="XMLID_101_" class="st3" cx="992.5" cy="185" r="4">
<animate  fill="remove" attributeName="opacity" accumulate="none" dur="1" repeatCount="indefinite" restart="always" calcMode="spline" additive="replace" keySplines="0.2 0 0.8 1" keyTimes="0;1" begin="-0.5s" values="1;0">
	</animate></circle>
<circle id="XMLID_102_" class="st3" cx="761.5" cy="31" r="4">
<animate  fill="remove" attributeName="opacity" accumulate="none" dur="1" repeatCount="indefinite" restart="always" calcMode="spline" additive="replace" keySplines="0.2 0 0.8 1" keyTimes="0;1" begin="-0.7s" values="1;0">
	</animate></circle>
<circle id="XMLID_103_" class="st3" cx="195" cy="142" r="4">
<animate  fill="remove" attributeName="opacity" accumulate="none" dur="1" repeatCount="indefinite" restart="always" calcMode="spline" additive="replace" keySplines="0.2 0 0.8 1" keyTimes="0;1" begin="-0.9s" values="1;0">
	</animate></circle>
<circle id="XMLID_105_" class="st3" cx="417" cy="33" r="2">
<animate  fill="remove" attributeName="opacity" accumulate="none" dur="1" repeatCount="indefinite" restart="always" calcMode="spline" additive="replace" keySplines="0.2 0 0.8 1" keyTimes="0;1" begin="-0.8s" values="1;0">
	</animate></circle>
<circle id="XMLID_109_" class="st3" cx="512" cy="115.8" r="2">
<animate  fill="remove" attributeName="opacity" accumulate="none" dur="1" repeatCount="indefinite" restart="always" calcMode="spline" additive="replace" keySplines="0.2 0 0.8 1" keyTimes="0;1" begin="-0.3s" values="1;0">
	</animate></circle>
<circle id="XMLID_110_" class="st3" cx="816" cy="44.5" r="2">
<animate  fill="remove" attributeName="opacity" accumulate="none" dur="1" repeatCount="indefinite" restart="always" calcMode="spline" additive="replace" keySplines="0.2 0 0.8 1" keyTimes="0;1" begin="-0.1s" values="1;0">
	</animate></circle>
<circle id="XMLID_111_" class="st3" cx="1328" cy="61.3" r="2">
<animate  fill="remove" attributeName="opacity" accumulate="none" dur="1" repeatCount="indefinite" restart="always" calcMode="spline" additive="replace" keySplines="0.2 0 0.8 1" keyTimes="0;1" begin="-0.4s" values="1;0">
	</animate></circle>
<circle id="XMLID_112_" class="st3" cx="22" cy="51.8" r="2">
<animate  fill="remove" attributeName="opacity" accumulate="none" dur="1" repeatCount="indefinite" restart="always" calcMode="spline" additive="replace" keySplines="0.2 0 0.8 1" keyTimes="0;1" begin="-0.6s" values="1;0">
	</animate></circle>
<circle id="XMLID_106_" class="st3" cx="1455" cy="119.8" r="4">
<animate  fill="remove" attributeName="opacity" accumulate="none" dur="1" repeatCount="indefinite" restart="always" calcMode="spline" additive="replace" keySplines="0.2 0 0.8 1" keyTimes="0;1" begin="-0.4s" values="1;0">
	</animate></circle>
<circle id="XMLID_107_" class="st3" cx="1292" cy="40.5" r="4">
<animate  fill="remove" attributeName="opacity" accumulate="none" dur="1" repeatCount="indefinite" restart="always" calcMode="spline" additive="replace" keySplines="0.2 0 0.8 1" keyTimes="0;1" begin="-0.7s" values="1;0">
	</animate></circle>
<circle id="XMLID_108_" class="st3" cx="290" cy="95" r="4">
<animate  fill="remove" attributeName="opacity" accumulate="none" dur="1" repeatCount="indefinite" restart="always" calcMode="spline" additive="replace" keySplines="0.2 0 0.8 1" keyTimes="0;1" begin="-0.5s" values="1;0">
	</animate></circle>



<!-- <circle id="XMLID_2_" class="st4" cx="1480.3" cy="168" r="133.3">
<animate  fill="remove" attributeName="r" accumulate="none" dur="1" repeatCount="indefinite" restart="always" calcMode="spline" additive="replace" keySplines="0 0.2 0.8 1" keyTimes="0;1" begin="-0.5s" values="0;40">
	</animate>
<animate  fill="remove" attributeName="opacity" accumulate="none" dur="1" repeatCount="indefinite" restart="always" calcMode="spline" additive="replace" keySplines="0.2 0 0.8 1" keyTimes="0;1" begin="-0.5s" values="1;0">
	</animate>
</circle>
<circle id="XMLID_1_" class="st5" cx="1480.3" cy="168" r="82.8">
<animate  fill="remove" attributeName="r" accumulate="none" dur="1" repeatCount="indefinite" restart="always" calcMode="spline" additive="replace" keySplines="0 0.2 0.8 1" keyTimes="0;1" begin="0s" values="0;40">
	</animate>
<animate  fill="remove" attributeName="opacity" accumulate="none" dur="1" repeatCount="indefinite" restart="always" calcMode="spline" additive="replace" keySplines="0.2 0 0.8 1" keyTimes="0;1" begin="0s" values="1;0">
	</animate>
</circle> -->



</svg>
