<?xml version="1.0" encoding="utf-8"?>
<!-- Generator: Adobe Illustrator 19.0.0, SVG Export Plug-In . SVG Version: 6.00 Build 0)  -->
<svg version="1.1" xmlns="http://www.w3.org/2000/svg" xmlns:xlink="http://www.w3.org/1999/xlink" x="0px" y="0px"
	 viewBox="0 0 470.1 306.4" style="enable-background:new 0 0 470.1 306.4;" xml:space="preserve">
<style type="text/css">
	.st0{clip-path:url(#SVGID_2_);}
	.st1{fill:#FFFFFF;}
	.st2{clip-path:url(#SVGID_10_);fill:#F4F4F4;}
	.st3{clip-path:url(#SVGID_10_);fill:url(#SVGID_11_);}
	.st4{clip-path:url(#SVGID_10_);}
	.st5{clip-path:url(#SVGID_13_);fill:url(#SVGID_14_);}
	.st6{clip-path:url(#SVGID_13_);fill:url(#SVGID_15_);}
	.st7{opacity:0.4;fill:#FFD180;}
	.st8{fill:#EBFFF8;}
	.st9{fill:#D3E8F2;}
	.st10{fill:url(#SVGID_16_);}
	.st11{fill:url(#SVGID_17_);}
	.st12{fill:url(#SVGID_18_);}
	.st13{fill:url(#SVGID_19_);}
	.st14{fill:#FFE1AB;}
	.st15{fill:#F7634B;}
	.st16{opacity:0.7;fill:#FFD180;}
	.st17{opacity:0.6;fill:#F7634B;}
	.st18{fill:#EFF4F4;}
	.st19{fill:url(#SVGID_20_);}
	.st20{fill:#FFD180;}
	.st21{fill:#F8FFFB;}
	.st22{opacity:0.3;}
	.st23{fill:#95EFC6;}
	.st24{fill:#D8D8D8;}
	.st25{fill:url(#SVGID_21_);}
	.st26{fill:url(#SVGID_22_);}
	.st27{fill:url(#SVGID_23_);}
	.st28{fill:url(#SVGID_24_);}
	.st29{fill:url(#SVGID_25_);}
	.st30{fill:url(#SVGID_26_);}
	.st31{fill:url(#SVGID_27_);}
	.st32{fill:url(#SVGID_28_);}
	.st33{fill:url(#SVGID_29_);}
	.st34{fill:url(#SVGID_30_);}
	.st35{fill:url(#SVGID_31_);}
	.st36{fill:url(#SVGID_32_);}
	.st37{fill:url(#SVGID_33_);}
	.st38{fill:url(#SVGID_34_);}
	.st39{fill:url(#SVGID_35_);}
	.st40{fill:url(#SVGID_36_);}
	.st41{fill:url(#SVGID_37_);}
	.st42{fill:url(#SVGID_38_);}
	.st43{fill:url(#SVGID_39_);}
	.st44{fill:url(#SVGID_40_);}
	.st45{fill:url(#SVGID_41_);}
	.st46{fill:#EA8F68;}
	.st47{fill:url(#SVGID_42_);}
	.st48{fill:url(#SVGID_43_);}
	.st49{fill:url(#SVGID_44_);}
	.st50{fill:url(#SVGID_45_);}
	.st51{fill:url(#SVGID_46_);}
	.st52{fill:#FFAF84;}
	.st53{fill:url(#SVGID_47_);}
	.st54{fill:url(#SVGID_48_);}
	.st55{fill:url(#SVGID_49_);}
	.st56{fill:url(#SVGID_50_);}
	.st57{fill:url(#SVGID_51_);}
	.st58{fill:url(#SVGID_52_);}
	.st59{fill:url(#SVGID_53_);}
	.st60{opacity:0.3;clip-path:url(#SVGID_55_);fill:url(#SVGID_56_);}
	.st61{fill:url(#SVGID_57_);}
	.st62{fill:url(#SVGID_58_);}
	.st63{fill:url(#SVGID_59_);}
	.st64{fill:url(#SVGID_60_);}
	.st65{fill:url(#SVGID_61_);}
	.st66{fill:url(#SVGID_62_);}
	.st67{fill:url(#SVGID_63_);}
	.st68{fill:url(#SVGID_64_);}
	.st69{fill:url(#SVGID_65_);}
	.st70{fill:url(#SVGID_66_);}
	.st71{fill:url(#SVGID_67_);}
	.st72{fill:url(#SVGID_68_);}
	.st73{fill:url(#SVGID_69_);}
	.st74{opacity:0.7;}
	.st75{fill:url(#SVGID_70_);}
	.st76{fill:#E3FFF0;}
	.st77{fill:url(#SVGID_71_);}
	.st78{opacity:0.3;fill:#F5FEFF;}
	.st79{fill:url(#SVGID_72_);}
	.st80{fill:url(#SVGID_73_);}
	.st81{opacity:0.2;clip-path:url(#SVGID_75_);fill:url(#SVGID_76_);}
	.st82{clip-path:url(#SVGID_78_);}
	.st83{fill:#F9FBFC;}
</style>
<g id="Objects">
	<g>
		<g>
			<g>
				<defs>
					<path id="SVGID_1_" d="M460,6.7v293c0,1.9-1.6,3.5-3.5,3.5h-443c-1.9,0-3.5-1.6-3.5-3.5V6.7c0-1.9,1.6-3.5,3.5-3.5h443
						C458.5,3.2,460,4.8,460,6.7z"/>
				</defs>
				<clipPath id="SVGID_2_">
					<use xlink:href="#SVGID_1_"  style="overflow:visible;"/>
				</clipPath>
				<g class="st0">
					<defs>
						<path id="SVGID_3_" d="M474.7,149.7c-15.2,44.9-52.3,40.1-70.1,21.8c-25.2-26-17.1-44.1-70-23.8c-18,6.9-39.3,6.9-55.9-3.8
							c-11.9-7.7-20.4-20.7-21.9-34.7c-0.8-7.8,0.4-15.7,0.4-23.6c-0.1-7.9-1.7-16.3-7.3-21.9c-5.3-5.4-13.3-7.2-20.9-7.5
							c-18.2-0.8-36.3,6-54.5,3.6c-15.4-2-31.9-10.2-41-23c-11.9-16.7-11.1-39.1-8.7-58.5c2.8-22.8,10.3-44.9,21.2-65.1
							c13.9-25.8,33.3-48.5,55.4-67.8c19.7-17.2,41.9-31.9,66.5-40.8c38.9-14,98.5-15.3,116.2,30.7c21.3,55.4-37.1,78,14.1,90.1
							c30.7,7.2,75.1,38.2,40,94.3C403,76,496.7,85.1,474.7,149.7z"/>
					</defs>
					<clipPath id="SVGID_4_">
						<use xlink:href="#SVGID_3_"  style="overflow:visible;"/>
					</clipPath>
				</g>
			</g>
			<g>
				<g>
					<defs>
						<path id="SVGID_5_" d="M435,245.5c-0.6-1.8-0.7-2.7-0.7-3.3c0.1,0,0.1-0.1,0.1-0.6c0.2-5.3,0.5-33.3-3.2-41.7c0,0,0,0,0,0
							c0-0.2,0-0.4-0.1-0.6c-0.7-4.9-2.6-31.4-3-35.1c0-2.4-0.1-5.3-0.9-8.9c-0.7-7.7,0.8-21,4.2-32c0.5-1.6,0.8-3.2,0.8-4.6
							c0.1-0.5,0.2-0.9,0.2-1.2c0.4-2.1-0.7-3.6-1.9-4.3c-1.1-1.3-2.7-2.2-5.1-2.6c-0.8-0.2-1.7-0.3-2.6-0.4c-0.1-1.4-0.2-2.8-0.3-4
							c1.1-1,1.5-1.8,1.8-3.4c0.7-0.2,1.4-1,1.9-2.1c0.6-1.4,0.5-2.9-0.3-3.2c-0.1,0-0.2-0.1-0.3-0.1c0.3-1,0.1-2.2-0.5-4.2
							c-0.3-1.2-0.8-1.7-1.3-2c0.6-1-0.2-2.5-2.8-3.3c-5.9-1.7-12.7,3-12.7,3c1.3,0.6,3.3,0.6,3.3,0.6c-0.5,0.6-1.8,1.4-1.8,1.4
							c0.3,0.1,0.7,0.1,1.1,0.2c-0.9,1.6-0.4,4.9-0.1,6.1c0.1,0.3,0.2,0.6,0.3,0.8c0.1,2.1,0.4,3.8,0.7,4.8c0.1,0.3,0.2,0.7,0.4,1
							c-0.8-0.5-1.6-0.8-2.3-0.6c-1.1,0.2,0.3,3.2,1.6,5.5c-0.8,0.2-1.7,0.5-2.3,0.8c-2.3,1.2-3.8,2.9-4.6,4.9
							c-2.3,3.4-3.9,6.1-5.1,8.2c-1,0.1-1.9,2.1-1.6,2.8c0,0,0,0,0,0c-0.3,0.5-0.5,1-0.7,1.3c-1.9,3.5,1,6.4,2.9,6.2
							c0.6,0.1,1.2,0,1.7-0.4c0.3-0.3,0.7-0.6,1-1c-0.6,11-0.6,21.9-0.6,21.9s-0.3,6.7,1,15.4l0,0c0.9,9.2,2.6,25.4,3,29.2
							c0.1,0.9,0.2,1.7,0.4,2.4c0,0.4,0.1,0.9,0.2,1.4c1.7,8,6.2,23.7,8.7,39.3c-0.3,0.6-1.7,1.8-3.5,2.6c-1.9,0.8-5.9,1.2-3.7,1.9
							c2.2,0.7,4.9,0.3,6.2,0.1c1.3-0.2,2.6-0.2,4.2-0.2c2.1,0,2.1-0.1,1.8-2.4c-0.1-0.4-0.2-0.8-0.3-1.1
							c-1.6-11.7-0.2-32.9-4.4-42.3c0.6-7.6-0.2-23.8-0.1-30.5c0,0.3,0,0.6,0.1,0.9c0.4,4.9,4,20.6,6.5,29.6c0,0.7,0.1,1.4,0.3,2.3
							c2,7.9,6.5,31,7.3,38.2l0,0c-0.1,0.6-0.1,1-0.2,1.6c-0.2,0.9-1,1.3-1.5,2c-0.6,0.8-1.4,2.2,2,2.2
							C433.4,247.7,435.6,247.5,435,245.5z M415.6,108.7c0,0.4,0,0.8,0,1.2c0,0,0,0-0.1,0c-0.1-0.5-0.2-0.9-0.5-1.4
							C415.3,108.6,415.4,108.7,415.6,108.7z"/>
					</defs>
					<clipPath id="SVGID_6_">
						<use xlink:href="#SVGID_5_"  style="overflow:visible;"/>
					</clipPath>
				</g>
			</g>
			<g>
				<g>
					<defs>
						<path id="SVGID_7_" d="M319.3,154.4l-19.4-27.1c0.5-0.5,0.7-0.8,0.7-1.3c0-0.3-0.2-0.6-0.4-0.8c0-0.2-0.1-0.4-0.2-0.6
							c-0.4-0.8-2.1-1.7-2.7-1.7c-0.2,0-0.4,0.1-0.5,0.2l-3.7-5.1c-0.8-1.2-2.5-1.4-3.7-0.6l-5.2,3.7l-8,5.7
							c-0.6-0.3-1.2-0.6-1.8-0.8c-0.6-0.2-1.3-0.2-1.9-0.3c-0.4,0-0.8-0.1-1.3-0.1c0-0.5,0-0.9,0-1.4c0.5,0.1,0.9,0.1,1.4,0.1
							c2.1,0,3.7-2.2,4.1-4c0.4-1.5,0.9-4.8,0.7-8.5c0.4,1,0.6-2.7-0.3-4.3c-0.5-0.9-2-2.3-3.3-2.7c-1.7-1-3.5-1.2-5.3-0.9
							c0-1.9-1.6-3.9-4.7-4.2c-4.5-0.4-12.6,2.2-8.3,12.8c4.5,11,3.1,13.8,0.1,15.5c0,0,3,0.2,5.6-0.9c-0.3,0.2-0.5,0.5-0.7,0.8
							c-1.1,1-2.6,2.4-5.2,5.5c-5.3,6.2-6.9,9.3-7.5,10.7c-0.1,0.3-0.1,0.7,0,1c0.1,0.5,0.3,1.1,0.7,1.5l-28.7,20.6
							c-1.2,0.8-1.4,2.5-0.6,3.6l26.2,36.5c0.8,1.2,2.5,1.4,3.6,0.6l11.1-8c-0.2,2.3-0.4,4.2-0.5,5.1c0,0.2,0,0.4-0.1,0.6
							c-4,7-5.8,30.9-6.3,35.4c0,0.2,0,0.4,0.1,0.4c-0.3,0.4-0.4,0.8-0.5,1.4c-0.2,1.9-0.2,2,1.5,2c1.3,0,1.5,1.2,2.6,1.4
							c1.1,0.2,3.3,0.6,5.1-0.1c1.9-0.6-1.5-1-3.1-1.7c-1.4-0.6-1.8-2.4-2-3.2c1.7-6.2,7-25.4,9.7-31.8c0.4-1,0.6-1.9,0.6-2.6
							c1.2-4.1,2.7-9.8,3.9-15l3.2-2.3c1.1,6.2,2.5,13.8,3.7,18c-2.1,8.6,1.9,26.1,2.2,36.2c0,0,0,0,0,0c0,0.1,0,0.1,0,0.2
							c-0.2,1.9-0.2,2,1.5,2c1.3,0,2.4,0,3.5,0.2c1.1,0.2,3.3,0.6,5.1-0.1c1.9-0.6-1.5-1-3.1-1.7s-2.7-1.8-3-2.2
							c-0.1-0.1-0.2-0.2-0.3-0.3c-0.1-13.4,1.3-26.8,1.6-33.8c0-0.4,0-0.8,0-1.2c0-0.6,0-1.3,0-2.1c-0.2-2.9-0.7-14.5-1-22.6
							l7.8-5.6c0.4,0.3,0.9,0.3,1.3,0l9.1-6.5c0.4-0.3,0.5-0.8,0.4-1.2l10.4-7.5l5.2-3.7C319.9,157.2,320.2,155.6,319.3,154.4z
							 M256.5,240.8c-0.1-0.1-0.2-0.1-0.3-0.2C256.3,240.7,256.4,240.7,256.5,240.8z M265.3,120.7c0.3,0.4,0.6,0.7,1,1.1
							c-0.1,1.1-0.1,2.4-0.2,3.6c-1.2,0.1-2.3,0.3-3.3,0.7C264.2,125.1,265.3,123.4,265.3,120.7z M261.5,136.2
							c0.1,0.3,0.3,0.6,0.4,0.9l-4.5,3.2C258.6,139.1,260,137.7,261.5,136.2z"/>
					</defs>
					<clipPath id="SVGID_8_">
						<use xlink:href="#SVGID_7_"  style="overflow:visible;"/>
					</clipPath>
				</g>
			</g>
		</g>
	</g>
	<g>
		<g>
			<path class="st1" d="M460,6.7v293c0,1.9-1.6,3.5-3.5,3.5h-443c-1.9,0-3.5-1.6-3.5-3.5V6.7c0-1.9,1.6-3.5,3.5-3.5h443
				C458.5,3.2,460,4.8,460,6.7z"/>
			<g>
				<defs>
					<path id="SVGID_9_" d="M460,6.7v293c0,1.9-1.6,3.5-3.5,3.5h-443c-1.9,0-3.5-1.6-3.5-3.5V6.7c0-1.9,1.6-3.5,3.5-3.5h443
						C458.5,3.2,460,4.8,460,6.7z"/>
				</defs>
				<clipPath id="SVGID_10_">
					<use xlink:href="#SVGID_9_"  style="overflow:visible;"/>
				</clipPath>
				<path class="st2" d="M578.8,304.9c45.2-18.4,38.1-56.2,18.1-73.4c-28.2-24.3-46.3-14.8-28.7-70.5c6-18.9,4.7-40.8-7.3-57.2
					c-8.6-11.8-22.5-19.7-37-20.4c-8.1-0.4-16.1,1.4-24.2,1.8c-8.1,0.4-16.8-0.8-22.9-6.1c-5.9-5.2-8.2-13.3-9-21
					c-1.9-18.7,4-37.6,0.4-56.2c-3-15.7-12.4-32.2-26.1-40.8c-17.9-11.3-40.9-9-60.7-5.4c-23.2,4.2-45.5,13.3-65.6,25.7
					C290.1-2.8,268,18.5,249.5,42.4c-16.5,21.3-30.3,44.9-37.8,70.8c-12,40.8-9.8,102.1,38.6,117.5c58.2,18.5,73.1-39.1,88.6,12.9
					c9.3,31.1,48.6,71,104.2,31.6C498.6,235.7,513.7,331.3,578.8,304.9z"/>
				<linearGradient id="SVGID_11_" gradientUnits="userSpaceOnUse" x1="321.3881" y1="1.5266" x2="245.388" y2="142.5267">
					<stop  offset="0" style="stop-color:#008161"/>
					<stop  offset="1" style="stop-color:#9FFF31"/>
				</linearGradient>
				<path class="st3" d="M464.9,157.4c-15.2,44.9-52.3,40.1-70.1,21.8c-25.2-26-17.1-44.1-70-23.8c-18,6.9-39.3,6.9-55.9-3.8
					C257,144,248.4,131,247,116.9c-0.8-7.8,0.4-15.7,0.4-23.6c-0.1-7.9-1.7-16.3-7.3-21.9c-5.3-5.4-13.3-7.2-20.9-7.5
					c-18.2-0.8-36.3,6-54.5,3.6c-15.4-2-31.9-10.2-41-23c-11.9-16.7-11.1-39.1-8.7-58.5c2.8-22.8,10.3-44.9,21.2-65.1
					c13.9-25.8,33.3-48.5,55.4-67.8c19.7-17.2,41.9-31.9,66.5-40.8c38.9-14,98.5-15.3,116.2,30.7c21.3,55.4-37.1,78,14.1,90.1
					c30.7,7.2,75.1,38.2,40,94.3C393.2,83.6,486.8,92.8,464.9,157.4z"/>
				<g class="st4">
					<defs>
						<path id="SVGID_12_" d="M474.7,149.7c-15.2,44.9-52.3,40.1-70.1,21.8c-25.2-26-17.1-44.1-70-23.8c-18,6.9-39.3,6.9-55.9-3.8
							c-11.9-7.7-20.4-20.7-21.9-34.7c-0.8-7.8,0.4-15.7,0.4-23.6c-0.1-7.9-1.7-16.3-7.3-21.9c-5.3-5.4-13.3-7.2-20.9-7.5
							c-18.2-0.8-36.3,6-54.5,3.6c-15.4-2-31.9-10.2-41-23c-11.9-16.7-11.1-39.1-8.7-58.5c2.8-22.8,10.3-44.9,21.2-65.1
							c13.9-25.8,33.3-48.5,55.4-67.8c19.7-17.2,41.9-31.9,66.5-40.8c38.9-14,98.5-15.3,116.2,30.7c21.3,55.4-37.1,78,14.1,90.1
							c30.7,7.2,75.1,38.2,40,94.3C403,76,496.7,85.1,474.7,149.7z"/>
					</defs>
					<clipPath id="SVGID_13_">
						<use xlink:href="#SVGID_12_"  style="overflow:visible;"/>
					</clipPath>
					
						<linearGradient id="SVGID_14_" gradientUnits="userSpaceOnUse" x1="358.7006" y1="-73.4167" x2="282.7032" y2="67.5783" gradientTransform="matrix(0.9904 -0.1384 0.1384 0.9904 -22.9751 83.3817)">
						<stop  offset="0" style="stop-color:#008161"/>
						<stop  offset="1" style="stop-color:#9FFF31"/>
					</linearGradient>
					<path class="st5" d="M485.8,95.5c-8.9,46.5-46.3,47-66.4,31.3c-28.6-22.3-23-41.3-72.6-13.9c-16.8,9.3-38,12.3-55.9,4
						c-12.8-6-23.1-17.6-26.5-31.4c-1.9-7.6-1.7-15.6-2.9-23.4s-4-15.9-10.2-20.6c-6-4.6-14.2-5.3-21.7-4.5
						c-18.2,1.8-35.1,11-53.5,11.1c-15.5,0.1-33-5.7-43.8-17.1c-14.1-14.9-16.4-37.2-16.8-56.8c-0.4-22.9,4-45.9,11.9-67.4
						c10.2-27.5,26.3-52.7,45.5-74.9c17.1-19.7,37-37.4,60.2-49.6c36.6-19.2,95.4-28.8,119.3,14.3c28.8,51.9-26,82.4,26.5,87.3
						c31.4,2.9,79.7,27.4,52.7,87.9C404.6,32.4,498.6,28.5,485.8,95.5z"/>
					
						<linearGradient id="SVGID_15_" gradientUnits="userSpaceOnUse" x1="389.7423" y1="-115.7468" x2="313.7404" y2="25.2567" gradientTransform="matrix(0.9704 -0.2414 0.2414 0.9704 -29.3823 146.0382)">
						<stop  offset="0" style="stop-color:#008161"/>
						<stop  offset="1" style="stop-color:#9FFF31"/>
					</linearGradient>
					<path class="st6" d="M497.7,56.2c-4,47.2-43.5,65.6-65.2,52.1c-30.7-19.1-24.8-52.7-71.3-20.2c-15.8,11-36.5,16.2-55.1,9.8
						c-13.4-4.6-24.8-15.1-29.7-28.4c-2.7-7.4-3.4-15.4-5.3-23c-2-7.6-5.6-15.4-12.3-19.5c-6.5-3.9-14.7-3.8-22.1-2.2
						c-17.9,3.7-33.7,14.6-52,16.7c-15.4,1.7-33.4-2.2-45.4-12.4c-15.6-13.3-20.2-35.3-22.6-54.7c-2.8-22.8-0.9-46.1,4.8-68.3
						c7.3-28.4,20.6-55.1,37.4-79.2c15-21.4,32.9-41.1,54.7-55.6c34.4-22.9,91.9-38.6,120.1,1.7c34.1,48.6-17.2,84.7,35.5,84
						c31.5-0.4,82.1,18.9,61.6,81.9C410.4,2,503.4-11.8,497.7,56.2z"/>
				</g>
			</g>
			<g>
				<rect x="298" y="79.8" class="st7" width="90.6" height="90.6"/>
				<g>
					<rect x="293" y="88.2" class="st8" width="88.4" height="16.5"/>
					<rect x="367" y="90.6" class="st9" width="11.8" height="11.8"/>
					<linearGradient id="SVGID_16_" gradientUnits="userSpaceOnUse" x1="270.1215" y1="92.4725" x2="316.2198" y2="92.4725">
						<stop  offset="0" style="stop-color:#008161"/>
						<stop  offset="1" style="stop-color:#9FFF31"/>
					</linearGradient>
					<rect x="298.7" y="91.3" class="st10" width="25.4" height="2.3"/>
					<linearGradient id="SVGID_17_" gradientUnits="userSpaceOnUse" x1="270.1215" y1="96.503" x2="316.2198" y2="96.503">
						<stop  offset="0" style="stop-color:#008161"/>
						<stop  offset="1" style="stop-color:#9FFF31"/>
					</linearGradient>
					<rect x="298.7" y="95.4" class="st11" width="25.4" height="2.3"/>
					<linearGradient id="SVGID_18_" gradientUnits="userSpaceOnUse" x1="270.1209" y1="100.5333" x2="316.2202" y2="100.5333">
						<stop  offset="0" style="stop-color:#008161"/>
						<stop  offset="1" style="stop-color:#9FFF31"/>
					</linearGradient>
					<rect x="298.7" y="99.4" class="st12" width="17.1" height="2.3"/>
				</g>
				<g>
					<linearGradient id="SVGID_19_" gradientUnits="userSpaceOnUse" x1="350.2741" y1="238.3781" x2="344.34" y2="206.1969">
						<stop  offset="0" style="stop-color:#F70F47"/>
						<stop  offset="1" style="stop-color:#FFB41D"/>
					</linearGradient>
					<rect x="312" y="156.4" class="st13" width="50.8" height="23.8"/>
					<rect x="318.6" y="160" class="st14" width="25.9" height="2.6"/>
					<rect x="318.6" y="164.7" class="st14" width="19.8" height="2.6"/>
					<rect x="318.6" y="169.3" class="st14" width="13.3" height="2.6"/>
					<rect x="333.5" y="169.3" class="st15" width="7.9" height="2.6"/>
					<rect x="318.6" y="174" class="st14" width="18" height="2.6"/>
				</g>
				<g>
					<rect x="334.2" y="73.3" class="st16" width="19.2" height="19.2"/>
					<g>
						<circle class="st17" cx="343.8" cy="82.9" r="6"/>
						<path class="st18" d="M348.4,82.9c0,1.5-0.7,2.8-1.9,3.7c-0.3,0.2-0.7,0.5-1.1,0.6c-0.2,0.1-0.4,0.1-0.5,0.2
							c-0.1,0-0.2,0-0.3,0.1c-0.2,0-0.5,0.1-0.7,0.1c-0.5,0-0.9-0.1-1.4-0.2c-1.9-0.6-3.2-2.3-3.2-4.4c0-0.7,0.2-1.4,0.5-2
							c0.4-0.7,0.9-1.4,1.6-1.8c0.2-0.1,0.3-0.2,0.5-0.3c0.4-0.2,0.8-0.3,1.2-0.4c0.3-0.1,0.6-0.1,0.8-0.1c1.9,0,3.6,1.2,4.2,2.9
							C348.3,81.8,348.4,82.3,348.4,82.9z"/>
						<linearGradient id="SVGID_20_" gradientUnits="userSpaceOnUse" x1="329.2318" y1="81.4711" x2="348.9834" y2="81.4711">
							<stop  offset="0" style="stop-color:#F70F47"/>
							<stop  offset="1" style="stop-color:#FFB41D"/>
						</linearGradient>
						<path class="st19" d="M345.8,81.7c-0.2-0.2-0.5-0.3-0.7-0.2l-0.7,0.4v-2c0-0.3-0.2-0.5-0.5-0.5c-0.3,0-0.5,0.2-0.5,0.5v2.9
							c0,0,0,0,0,0c0,0,0,0.1,0,0.1c0,0,0,0.1,0,0.1c0,0,0,0,0,0c0,0,0,0,0,0c0,0,0.1,0.1,0.1,0.1c0,0,0,0,0.1,0
							c0.1,0,0.1,0.1,0.2,0.1v0l0,0c0.1,0,0.1,0,0.2,0c0,0,0,0,0,0c0,0,0,0,0.1,0l1.5-1C345.9,82.3,346,81.9,345.8,81.7z"/>
					</g>
				</g>
				<g>
					<rect x="364" y="109.7" class="st20" width="43.1" height="43.1"/>
					<path class="st21" d="M385.5,133.2L385.5,133.2c-3,0-5.5-2.5-5.5-5.5v-3.3c0-3,2.5-5.5,5.5-5.5l0,0c3,0,5.5,2.5,5.5,5.5v3.3
						C391,130.7,388.6,133.2,385.5,133.2z"/>
					<path class="st21" d="M385.5,130.3c-5.2,0-9.6,3-11.7,7.4c-1.2,2.6,0.6,5.5,3.5,5.5h16.4c2.8,0,4.7-3,3.5-5.5
						C395.2,133.4,390.7,130.3,385.5,130.3z"/>
				</g>
				<rect x="341.9" y="100.6" class="st17" width="28.5" height="12.6"/>
				<rect x="324.6" y="132.7" class="st17" width="28.5" height="12.6"/>
				<rect x="333.3" y="116.6" class="st17" width="28.5" height="12.6"/>
				<g class="st22">
					
						<rect x="336" y="122.6" transform="matrix(0.9141 0.4056 -0.4056 0.9141 79.7264 -130.357)" class="st15" width="23" height="0.7"/>
					
						<rect x="347.1" y="111.5" transform="matrix(0.4049 0.9144 -0.9144 0.4049 319.2243 -244.5499)" class="st15" width="0.7" height="23"/>
				</g>
				<path class="st15" d="M365.3,84c-13.5-2.5-20,21-5.3,23c14.3,1.9,17.4-23,2.7-21.6c-1.9,0.2-1.9,3.2,0,3c10.4-1,8,16.2-1.7,15.7
					c-11.3-0.6-6.4-19,3.4-17.2C366.4,87.2,367.2,84.3,365.3,84L365.3,84z"/>
				<path class="st15" d="M342.9,96.8c-12.2,0.4-24.8,5.1-32.8,14.5c-5.6,6.5-11,20.6-0.1,24.8c1.8,0.7,2.6-2.2,0.8-2.9
					c-7-2.7-3.8-11.9-1-16.5c2.2-3.6,5.3-6.6,8.7-9.1c7.1-5.1,15.6-7.6,24.3-7.8C344.8,99.7,344.8,96.7,342.9,96.8L342.9,96.8z"/>
				<path class="st15" d="M312.4,129c0.9,1,1.7,2,2.6,3c0.7,0.8,2.1,1.9,2.3,2.9c0.1-0.5,0.3-1,0.4-1.5c-1.1,0.9-2.9,1.5-4.1,2.2
					c-1.4,0.8-2.8,1.5-4.2,2.3c-1.7,0.9-0.2,3.5,1.5,2.6c2.1-1.1,4.1-2.2,6.2-3.3c1.1-0.6,3-1.1,3.2-2.5c0.2-1.2-0.9-2.2-1.6-3
					c-1.3-1.6-2.7-3.2-4.1-4.8C313.3,125.4,311.2,127.5,312.4,129L312.4,129z"/>
				<path class="st15" d="M370.9,171.1c6.7,1.6,16.9-2.1,18.6-9.4c0.4-1.9-2.4-2.7-2.9-0.8c-1.3,5.6-9.8,8.6-14.9,7.3
					C369.8,167.7,369,170.6,370.9,171.1L370.9,171.1z"/>
				<path class="st15" d="M382.2,162.3c2.5-2,5-4.1,7.6-6c-0.7-0.2-1.4-0.4-2.1-0.5c1.5,2.1,2.8,4.4,3.9,6.7
					c0.9,1.7,3.5,0.2,2.6-1.5c-1.2-2.3-2.4-4.6-3.9-6.7c-0.4-0.6-1.3-1-2.1-0.5c-2.8,2-5.5,4.3-8.2,6.5
					C378.6,161.3,380.7,163.5,382.2,162.3L382.2,162.3z"/>
				<g>
					<rect x="355.4" y="176.4" class="st23" width="16.6" height="16.6"/>
					<path class="st21" d="M363.7,185.4L363.7,185.4c-1.2,0-2.1-0.9-2.1-2.1v-1.3c0-1.2,0.9-2.1,2.1-2.1l0,0c1.2,0,2.1,0.9,2.1,2.1
						v1.3C365.8,184.5,364.9,185.4,363.7,185.4z"/>
					<path class="st21" d="M363.7,184.4c-2,0-3.7,1.2-4.5,2.9c-0.5,1,0.2,2.1,1.3,2.1h6.3c1.1,0,1.8-1.1,1.3-2.1
						C367.4,185.5,365.7,184.4,363.7,184.4z"/>
				</g>
			</g>
			<g>
				<ellipse class="st24" cx="248.9" cy="232.1" rx="12.6" ry="1"/>
				
					<linearGradient id="SVGID_21_" gradientUnits="userSpaceOnUse" x1="936.1145" y1="226.2996" x2="947.2128" y2="214.4066" gradientTransform="matrix(-1 -8.000000e-003 -8.000000e-003 1 1182.8326 -4.2895)">
					<stop  offset="0" style="stop-color:#008161"/>
					<stop  offset="1" style="stop-color:#9FFF31"/>
				</linearGradient>
				<path class="st25" d="M245.8,214.2c3.1-2-0.9-8.1-8.1-8.7c0,0-0.8,3.2-0.1,6C238.2,214,241.4,217,245.8,214.2z"/>
				
					<linearGradient id="SVGID_22_" gradientUnits="userSpaceOnUse" x1="967.6313" y1="372.8792" x2="978.7294" y2="360.9864" gradientTransform="matrix(-0.9276 -0.3736 -0.3736 0.9276 1285.9347 230.2918)">
					<stop  offset="0" style="stop-color:#008161"/>
					<stop  offset="1" style="stop-color:#9FFF31"/>
				</linearGradient>
				<path class="st26" d="M250,214.7c3.6-0.7,2.1-7.8-4.4-11c0,0-1.9,2.7-2.3,5.6C243,211.8,244.9,215.7,250,214.7z"/>
				
					<linearGradient id="SVGID_23_" gradientUnits="userSpaceOnUse" x1="931.7858" y1="556.7239" x2="941.8316" y2="545.9586" gradientTransform="matrix(-0.6616 -0.7498 -0.7498 0.6616 1285.6895 545.1149)">
					<stop  offset="0" style="stop-color:#008161"/>
					<stop  offset="1" style="stop-color:#9FFF31"/>
				</linearGradient>
				<path class="st27" d="M252.5,215.2c3.2,0.9,4.9-5.5,0.9-10.7c0,0-2.6,1.4-4.1,3.6C248,210,248,213.9,252.5,215.2z"/>
				
					<linearGradient id="SVGID_24_" gradientUnits="userSpaceOnUse" x1="821.226" y1="701.3737" x2="830.2509" y2="691.7024" gradientTransform="matrix(-0.2661 -0.964 -0.964 0.2661 1148.1483 818.7986)">
					<stop  offset="0" style="stop-color:#008161"/>
					<stop  offset="1" style="stop-color:#9FFF31"/>
				</linearGradient>
				<path class="st28" d="M253.9,214.4c2.3,2,6.1-2.5,5-8.3c0,0-2.7,0.1-4.7,1.3C252.4,208.4,250.8,211.6,253.9,214.4z"/>
				<linearGradient id="SVGID_25_" gradientUnits="userSpaceOnUse" x1="270.9868" y1="220.1997" x2="244.06" y2="178.9754">
					<stop  offset="0" style="stop-color:#008161"/>
					<stop  offset="1" style="stop-color:#9FFF31"/>
				</linearGradient>
				<path class="st29" d="M260.4,199.4c12.4-4.8,2.5-29-22.7-36.1c0,0-4.9,10.7-4.4,21.2C233.8,193.5,243.1,206.2,260.4,199.4z"/>
				
					<linearGradient id="SVGID_26_" gradientUnits="userSpaceOnUse" x1="830.7499" y1="223.5014" x2="863.8235" y2="171.1909" gradientTransform="matrix(-1 0 0 1 1095.2129 0)">
					<stop  offset="0" style="stop-color:#008161"/>
					<stop  offset="1" style="stop-color:#9FFF31"/>
				</linearGradient>
				<path class="st30" d="M240.2,166.4c2.3,1.7,4.3,3.7,5.8,6.1c0.4,0.5,0.8,1.2,1.1,1.7c0.3,0.6,0.7,1.2,1,1.8
					c0.3,0.6,0.6,1.2,0.9,1.9l0.5,0.9l0.4,1c1,2.6,1.8,5.2,2.4,7.9c0.3,1.4,0.6,2.7,0.8,4.1l0.5,4.2c0.1,0.7,0.2,1.4,0.3,2.1
					l0.1,2.1c0.1,1.4,0.1,2.8,0.2,4.2c0,2.8,0,5.6-0.1,8.5c-0.1,1.4-0.2,2.8-0.2,4.2l-0.1,2.1l0,1.1l-0.1,1.1l-0.3,4.3l-0.2,2.1
					l-0.1,2.2l0.2,0l1.5-8.5l0.2-1.1l0.1-1.1l0.2-2.1l0.5-4.3l0.1-1.1l0-1.1l0.1-2.1l0.2-4.3l-0.2-4.3l-0.1-2.2
					c0-0.7-0.2-1.4-0.2-2.1l-0.6-4.3l-0.9-4.2c-0.7-2.8-1.6-5.5-2.8-8.1l-0.4-1l-0.5-0.9l-1.1-1.9c-0.3-0.6-0.8-1.2-1.2-1.8
					c-0.4-0.6-0.8-1.2-1.3-1.7c-1.8-2.2-4-4.2-6.5-5.6L240.2,166.4z"/>
				
					<linearGradient id="SVGID_27_" gradientUnits="userSpaceOnUse" x1="222.978" y1="121.583" x2="253.2872" y2="89.1033" gradientTransform="matrix(0.9798 -0.1997 0.1997 0.9798 12.3583 113.2557)">
					<stop  offset="0" style="stop-color:#008161"/>
					<stop  offset="1" style="stop-color:#9FFF31"/>
				</linearGradient>
				<path class="st31" d="M252.6,187.5c-9.4-3.7-1.9-22.1,17.3-27.5c0,0,3.8,8.2,3.3,16.2C272.9,183.1,265.8,192.7,252.6,187.5z"/>
				
					<linearGradient id="SVGID_28_" gradientUnits="userSpaceOnUse" x1="854.0502" y1="224.3421" x2="818.35" y2="167.8772" gradientTransform="matrix(-1 0 0 1 1095.2129 0)">
					<stop  offset="0" style="stop-color:#008161"/>
					<stop  offset="1" style="stop-color:#9FFF31"/>
				</linearGradient>
				<path class="st32" d="M267.9,162.3c-1.9,2.3-3.5,4.8-5.1,7.3c-0.7,1.3-1.5,2.6-2.1,3.9l-1,2l-0.9,2c-2.5,5.4-4.3,11.1-5.8,16.9
					c-0.3,1.5-0.6,2.9-0.9,4.4l-0.4,2.2l-0.3,2.2l-0.6,4.4c-0.1,1.5-0.3,3-0.4,4.4l-0.2,2.2c0,0.7,0,1.5-0.1,2.2l-0.1,4.4
					c0,1.5,0.1,3,0.2,4.4c0.1,1.5,0.2,3,0.3,4.4l0.2,0c0.1-2.9,0-5.9,0.1-8.8l0.3-4.4c0.1-0.7,0.1-1.5,0.1-2.2l0.3-2.2l0.5-4.4
					l0.7-4.4l0.4-2.2l0.5-2.2c0.3-1.4,0.6-2.9,1-4.3c1.4-5.7,3.2-11.3,5.4-16.8c2.2-5.4,4.8-10.8,8.1-15.6L267.9,162.3z"/>
				
					<linearGradient id="SVGID_29_" gradientUnits="userSpaceOnUse" x1="885.8402" y1="280.8752" x2="941.573" y2="221.1513" gradientTransform="matrix(-0.9617 -0.2739 -0.2739 0.9617 1171.6625 149.5372)">
					<stop  offset="0" style="stop-color:#008161"/>
					<stop  offset="1" style="stop-color:#9FFF31"/>
				</linearGradient>
				<path class="st33" d="M247.4,176.8c17.8-5.4,6.6-40.2-27.8-52.8c0,0-8,14.5-8.4,29.2C210.9,165.7,222.6,184.4,247.4,176.8z"/>
				
					<linearGradient id="SVGID_30_" gradientUnits="userSpaceOnUse" x1="833.6525" y1="223.8392" x2="882.989" y2="133.8884" gradientTransform="matrix(-1 0 0 1 1095.2129 0)">
					<stop  offset="0" style="stop-color:#008161"/>
					<stop  offset="1" style="stop-color:#9FFF31"/>
				</linearGradient>
				<path class="st34" d="M222.8,128.5c0.7,0.9,1.3,1.8,1.9,2.8c0.6,0.9,1.2,1.9,1.8,2.8c0.6,0.9,1.1,1.9,1.7,2.9
					c0.5,1,1.1,1.9,1.6,2.9c1,2,2.1,3.9,2.9,5.9c0.5,1,0.9,2,1.4,3l1.3,3.1l1.3,3.1l1.1,3.1l1.2,3.1c0.4,1,0.7,2.1,1,3.1
					c0.3,1.1,0.7,2.1,1,3.1l0.5,1.6c0.2,0.5,0.3,1.1,0.4,1.6l1.7,6.4c0.5,2.1,0.9,4.3,1.4,6.5c0.2,1.1,0.5,2.2,0.7,3.2
					c0.2,1.1,0.3,2.2,0.5,3.3c0.3,2.2,0.7,4.4,1,6.5c0.2,2.2,0.4,4.4,0.7,6.6l0.4,3.3l0.2,3.3l0.4,6.7c0.3,4.4,0.1,8.9,0.4,13.4
					l0.2,0l0.4-6.7l0.2-3.4c0.1-1.1,0.1-2.2,0.1-3.4l-0.1-6.7l0-3.4l-0.2-3.3l-0.5-6.7c-0.2-2.2-0.6-4.4-0.9-6.7l-0.5-3.3
					c-0.2-1.1-0.4-2.2-0.6-3.3c-0.5-2.2-0.9-4.4-1.4-6.6c-2.2-8.7-5.1-17.2-8.8-25.3c-3.8-8.1-8.3-15.9-14.1-22.8L222.8,128.5z"/>
				
					<linearGradient id="SVGID_31_" gradientUnits="userSpaceOnUse" x1="852.0229" y1="172.4189" x2="892.234" y2="129.3282" gradientTransform="matrix(-0.9987 5.160000e-002 5.160000e-002 0.9987 1076.2522 -21.9505)">
					<stop  offset="0" style="stop-color:#008161"/>
					<stop  offset="1" style="stop-color:#9FFF31"/>
				</linearGradient>
				<path class="st35" d="M237.3,193c10.9-7.9-4.9-29-31.3-29.6c0,0-2.1,11.7,1.1,21.9C209.8,194,222.1,204,237.3,193z"/>
				
					<linearGradient id="SVGID_32_" gradientUnits="userSpaceOnUse" x1="838.7274" y1="221.9301" x2="892.6866" y2="172.6552" gradientTransform="matrix(-1 0 0 1 1095.2129 0)">
					<stop  offset="0" style="stop-color:#008161"/>
					<stop  offset="1" style="stop-color:#9FFF31"/>
				</linearGradient>
				<path class="st36" d="M209.2,165.7c2.7,1.8,5.2,3.8,7.5,6l1.7,1.6l1.7,1.7c1.1,1.1,2.1,2.3,3.2,3.6c4.1,4.9,7.7,10.1,10.9,15.6
					l2.3,4.2c0.4,0.7,0.7,1.4,1.1,2.1l1,2.2l1,2.2c0.2,0.4,0.4,0.7,0.5,1.1l0.4,1.1c0.6,1.5,1.2,3,1.8,4.4c0.7,1.5,1.1,3,1.7,4.5
					l1.6,4.5c1,3.1,1.8,6.2,2.9,9.2l0.2,0c-0.7-3.1-1.4-6.3-2.2-9.5l-1.4-4.6c-0.5-1.5-0.9-3.1-1.5-4.6l-1.7-4.5l-0.4-1.1
					c-0.2-0.4-0.3-0.7-0.5-1.1l-1-2.2l-1-2.2c-0.3-0.7-0.7-1.5-1.1-2.2l-2.3-4.3c-3.3-5.6-7-10.9-11.4-15.7
					c-1.1-1.2-2.2-2.4-3.4-3.5l-1.8-1.7l-1.9-1.6c-2.5-2-5.1-4-8-5.5L209.2,165.7z"/>
				
					<linearGradient id="SVGID_33_" gradientUnits="userSpaceOnUse" x1="867.0871" y1="164.3486" x2="873.1194" y2="153.3506" gradientTransform="matrix(-1 0 0 1 1095.2129 0)">
					<stop  offset="0" style="stop-color:#008161"/>
					<stop  offset="1" style="stop-color:#9FFF31"/>
				</linearGradient>
				<path class="st37" d="M234.1,160.3c-1.3-1-2.7-1.7-4.2-2.2c-0.7-0.3-1.5-0.5-2.2-0.7c-0.7-0.2-1.5-0.4-2.3-0.5
					c-1.5-0.2-3.1-0.4-4.7-0.4c-1.6,0.1-3.2,0.3-4.7,0.9l0,0.2c3,0,6.1,0.4,9,0.9c3,0.5,6,1.2,8.9,2L234.1,160.3z"/>
				
					<linearGradient id="SVGID_34_" gradientUnits="userSpaceOnUse" x1="869.3042" y1="153.0992" x2="873.1144" y2="143.1334" gradientTransform="matrix(-1 0 0 1 1095.2129 0)">
					<stop  offset="0" style="stop-color:#008161"/>
					<stop  offset="1" style="stop-color:#9FFF31"/>
				</linearGradient>
				<path class="st38" d="M231.3,150.4c-0.9-1.1-2-1.8-3.1-2.5c-0.6-0.4-1.1-0.6-1.7-0.9c-0.6-0.3-1.2-0.5-1.8-0.7
					c-1.2-0.4-2.5-0.7-3.8-0.8c-1.3-0.1-2.7-0.1-4,0.4l0,0.2c2.5,0.3,5,1,7.4,1.8c2.4,0.8,4.8,1.7,7.1,2.7L231.3,150.4z"/>
				
					<linearGradient id="SVGID_35_" gradientUnits="userSpaceOnUse" x1="849.5804" y1="158.1794" x2="849.6087" y2="148.7425" gradientTransform="matrix(-1 0 0 1 1095.2129 0)">
					<stop  offset="0" style="stop-color:#008161"/>
					<stop  offset="1" style="stop-color:#9FFF31"/>
				</linearGradient>
				<path class="st39" d="M243.8,158.2c0.5-0.8,0.9-1.6,1.2-2.3c0.3-0.8,0.6-1.5,0.8-2.2c0.1-0.4,0.2-0.7,0.4-1l0.2-0.5
					c0.1-0.2,0.1-0.3,0.2-0.5c0.3-0.7,0.6-1.3,1.1-2.1l-0.1-0.1c-0.8,0.3-1.5,0.9-2,1.6c-0.5,0.7-0.9,1.5-1.2,2.3
					c-0.5,1.6-0.8,3.3-0.8,5L243.8,158.2z"/>
				
					<linearGradient id="SVGID_36_" gradientUnits="userSpaceOnUse" x1="855.978" y1="147.0273" x2="857.5803" y2="139.8465" gradientTransform="matrix(-1 0 0 1 1095.2129 0)">
					<stop  offset="0" style="stop-color:#008161"/>
					<stop  offset="1" style="stop-color:#9FFF31"/>
				</linearGradient>
				<path class="st40" d="M237.9,147.3c0.3-0.7,0.4-1.3,0.5-2c0.1-0.6,0.1-1.2,0.2-1.8c0-0.6,0.1-1.1,0.1-1.7
					c0.1-0.5,0.1-1.1,0.4-1.8l-0.1-0.1c-0.5,0.4-0.9,0.9-1.2,1.6c-0.3,0.6-0.4,1.3-0.4,1.9c-0.1,1.3,0,2.6,0.3,3.9L237.9,147.3z"/>
				<g>
					
						<linearGradient id="SVGID_37_" gradientUnits="userSpaceOnUse" x1="847.3694" y1="213.0595" x2="847.3694" y2="230.0083" gradientTransform="matrix(-1 0 0 1 1095.2129 0)">
						<stop  offset="0" style="stop-color:#F70F47"/>
						<stop  offset="1" style="stop-color:#9E005D"/>
					</linearGradient>
					<path class="st41" d="M240.2,232.1h15.3c0.8,0,1.4-0.6,1.5-1.3l2.1-17.7c0.1-0.9-0.6-1.7-1.5-1.7h-19.5c-0.9,0-1.6,0.8-1.5,1.7
						l2.1,17.7C238.8,231.5,239.4,232.1,240.2,232.1z"/>
					
						<linearGradient id="SVGID_38_" gradientUnits="userSpaceOnUse" x1="847.3691" y1="217.3846" x2="847.3691" y2="210.0018" gradientTransform="matrix(-1 0 0 1 1095.2129 0)">
						<stop  offset="0" style="stop-color:#F70F47"/>
						<stop  offset="1" style="stop-color:#9E005D"/>
					</linearGradient>
					<path class="st42" d="M236.1,214.9h23.4c0.5,0,0.9-0.4,1-0.8l0.5-3c0.1-0.6-0.4-1.1-1-1.1h-24.4c-0.6,0-1.1,0.5-1,1.1l0.5,3
						C235.2,214.5,235.6,214.9,236.1,214.9z"/>
				</g>
			</g>
			<g>
				<ellipse class="st24" cx="421.8" cy="247.1" rx="18.7" ry="1.5"/>
				<g>
					<linearGradient id="SVGID_39_" gradientUnits="userSpaceOnUse" x1="430.8973" y1="253.1005" x2="432.028" y2="223.4198">
						<stop  offset="0" style="stop-color:#36078B"/>
						<stop  offset="1" style="stop-color:#168D68"/>
					</linearGradient>
					<path class="st43" d="M429.6,241.1c-0.3,1.1-0.2,1.5-0.3,2.3c-0.2,0.9-1,1.3-1.5,2c-0.6,0.8-1.4,2.2,2,2.2
						c3.7,0.1,5.8-0.2,5.2-2.2c-0.6-2-0.7-2.9-0.7-3.5c0-0.7,0-1.3-0.4-1.7C433.4,239.9,430.1,239.1,429.6,241.1z"/>
					<linearGradient id="SVGID_40_" gradientUnits="userSpaceOnUse" x1="406.1691" y1="122.329" x2="388.2899" y2="133">
						<stop  offset="0" style="stop-color:#36078B"/>
						<stop  offset="1" style="stop-color:#168D68"/>
					</linearGradient>
					<path class="st44" d="M400.6,134.7c1.4-0.8,4.2-3.1,9.4-10.2c3.2-4.3,4.2-6.4,5-7.9c1.4-2.6,0.1-4.9-1.8-5.3
						c-2.4-0.6-5.1-0.2-7.8,3.8c-4.9,7.3-7.2,11.6-8.2,13.5C395.1,132.4,398.9,135.6,400.6,134.7z"/>
					<linearGradient id="SVGID_41_" gradientUnits="userSpaceOnUse" x1="416.113" y1="100.6827" x2="406.3628" y2="85.4324">
						<stop  offset="0" style="stop-color:#36078B"/>
						<stop  offset="1" style="stop-color:#16B1FF"/>
					</linearGradient>
					<path class="st45" d="M413.6,100.3c-1.5,0.7-2.2,0.7-2.7-1.2c-0.4-1.4-1.1-6.5,1.2-6.9c2.3-0.3,4.1-0.4,3.9,2.7
						C415.7,98.1,415.3,99.4,413.6,100.3z"/>
					<path class="st46" d="M422.3,103c0,0.2,0.5,5.1,0.6,8.8c0,1.8-1.8,3.6-3.6,3.6c0,0-0.1,0-0.1,0c-1.8,0-3.9-1.6-3.8-3.4
						c0.3-3.3,0.1-6.6,0.1-6.6L422.3,103z"/>
					<linearGradient id="SVGID_42_" gradientUnits="userSpaceOnUse" x1="414.1248" y1="170.0088" x2="418.3649" y2="113.7564">
						<stop  offset="0" style="stop-color:#36078B"/>
						<stop  offset="1" style="stop-color:#168D68"/>
					</linearGradient>
					<path class="st47" d="M431.4,123.3c-3.3,11-4.8,24.3-4.2,32h-25.2c0,0,0.1-23.6,1.8-36.5c0.4-3,2.1-5.7,5.3-7.4
						c1.9-1,5.3-1.5,6.7-1.5h4.6c1.6,0,3.4,0.3,4.9,0.6C432.1,111.8,433.4,116.9,431.4,123.3z"/>
					<linearGradient id="SVGID_43_" gradientUnits="userSpaceOnUse" x1="422.1594" y1="238.7145" x2="410.8521" y2="115.4647">
						<stop  offset="0" style="stop-color:#F70F47"/>
						<stop  offset="1" style="stop-color:#FFB41D"/>
					</linearGradient>
					<path class="st48" d="M427.1,170.7c0,0,2.2-5.3,0.1-15.4h-25.2c0,0-0.3,6.7,1,15.4H427.1z"/>
					<g>
						<g>
							<linearGradient id="SVGID_44_" gradientUnits="userSpaceOnUse" x1="430.5691" y1="237.9416" x2="419.2621" y2="114.6947">
								<stop  offset="0" style="stop-color:#F70F47"/>
								<stop  offset="1" style="stop-color:#FFB41D"/>
							</linearGradient>
							<path class="st49" d="M422.2,203.6c-2-8.2,6.4-9.6,9-3.7c3.7,8.4,3.4,36.3,3.2,41.7c0,0.7,0,0.6-0.4,0.5
								c-0.6-0.2-1.2-1.5-2.8-1.4c-0.9,0-1.7,1.2-1.7,1.2C428.7,234.6,424.1,211.6,422.2,203.6z"/>
							<linearGradient id="SVGID_45_" gradientUnits="userSpaceOnUse" x1="428.1799" y1="238.1576" x2="416.874" y2="114.923">
								<stop  offset="0" style="stop-color:#F70F47"/>
								<stop  offset="1" style="stop-color:#FFB41D"/>
							</linearGradient>
							<path class="st50" d="M415.4,171.8c-0.9-10.2,2.4-18.1,8.7-14.7c2.7,1.4,3.6,4.2,4,6.9c0.4,2.7,2.3,30.4,3,35.4
								c1.5,11.3-7.4,8.2-8.3,5.1C420.3,196.6,415.8,177.3,415.4,171.8z"/>
						</g>
					</g>
					<linearGradient id="SVGID_46_" gradientUnits="userSpaceOnUse" x1="415.1095" y1="239.36" x2="403.8025" y2="116.1133">
						<stop  offset="0" style="stop-color:#F70F47"/>
						<stop  offset="1" style="stop-color:#FFB41D"/>
					</linearGradient>
					<path class="st51" d="M406.6,203.6c-1.6-7.5,5.8-8.5,8.6-2.7c4.5,9.2,3,31.1,4.6,43c-1.6-1.8-2.8-1.8-3.4-1.7
						c-0.9,0.2-1.2,0.9-1.2,0.9C412.9,227.4,408.3,211.6,406.6,203.6z"/>
					<path class="st52" d="M404.4,126.3c-1.3-0.5-3.4-1.3-4.5-1.7c-1.1-0.5-2.3,2-2,2.7c0.5,1.1,3.1,3.5,4.5,2.7
						c1.4-0.7,2.4,0.3,3.4-0.7C406.7,128.4,406.6,127.1,404.4,126.3z"/>
					<linearGradient id="SVGID_47_" gradientUnits="userSpaceOnUse" x1="415.5168" y1="239.3378" x2="404.2046" y2="116.0341">
						<stop  offset="0" style="stop-color:#F70F47"/>
						<stop  offset="1" style="stop-color:#FFB41D"/>
					</linearGradient>
					<path class="st53" d="M415.3,203c-0.5,3.2-8.3,8.2-9.3-3.1c-0.4-5-3.3-32.7-3.6-35.3c-0.2-2.7-0.6-6.7,0.3-7.4
						c5.9-4,12.6,3.2,12.5,13.4C415.3,177.3,416.2,196.3,415.3,203z"/>
					
						<linearGradient id="SVGID_48_" gradientUnits="userSpaceOnUse" x1="328.1384" y1="268.2772" x2="360.7117" y2="250.5006" gradientTransform="matrix(0.8881 0.4596 -0.4596 0.8881 223.5078 -255.5182)">
						<stop  offset="0" style="stop-color:#36078B"/>
						<stop  offset="1" style="stop-color:#168D68"/>
					</linearGradient>
					<path class="st54" d="M404.3,128.9c0.9,1.8,2.5,2.6,6.6,5.2c5.9,3.8,9.2,5.2,12.1,5.3c3,0.1,3.4-6-0.1-7.9
						c-3-1.6-15-3.5-16.8-4.5C404.8,126.3,403.5,127.4,404.3,128.9z"/>
					
						<linearGradient id="SVGID_49_" gradientUnits="userSpaceOnUse" x1="402.9858" y1="138.8382" x2="370.9995" y2="147.6508" gradientTransform="matrix(0.9922 0.125 -0.125 0.9922 37.6319 -67.5799)">
						<stop  offset="0" style="stop-color:#36078B"/>
						<stop  offset="1" style="stop-color:#168D68"/>
					</linearGradient>
					<path class="st55" d="M415.2,111.5c-0.1,2.1-0.6,3.7-3.2,7.8c-3.5,5.5-7.9,13-10.3,15.1c-2.3,1.9-6.6-2.4-4.2-5.6
						c2.1-2.7,14.2-16.7,15.4-18.3C413.7,109.5,415.3,109.9,415.2,111.5z"/>
					<path class="st52" d="M424.8,99.5c-0.4,4.2-0.5,5.1-2.4,6.8c-1.8,1.7-4.4,2.5-6.4,2.5c-2.1,0-3.7-2.3-4.2-4
						c-0.5-1.8-1.1-6.1-0.5-10.7c0.3-2.3,3.2-5.1,6.1-5.1C420.4,89,425.8,89.3,424.8,99.5z"/>
					<linearGradient id="SVGID_50_" gradientUnits="userSpaceOnUse" x1="413.5957" y1="252.4411" x2="414.7264" y2="222.7599">
						<stop  offset="0" style="stop-color:#36078B"/>
						<stop  offset="1" style="stop-color:#168D68"/>
					</linearGradient>
					<path class="st56" d="M415.3,242.8c-0.3,0.5-1.7,1.8-3.6,2.6c-1.9,0.8-5.9,1.2-3.7,1.9c2.2,0.7,4.9,0.3,6.2,0.1
						c1.3-0.2,2.6-0.2,4.2-0.2c2.1,0,2.1-0.1,1.8-2.4C419.8,241.7,416.2,241.1,415.3,242.8z"/>
					<linearGradient id="SVGID_51_" gradientUnits="userSpaceOnUse" x1="423.6634" y1="95.8551" x2="413.9135" y2="80.6052">
						<stop  offset="0" style="stop-color:#36078B"/>
						<stop  offset="1" style="stop-color:#16B1FF"/>
					</linearGradient>
					<path class="st57" d="M424.8,98.8c-1.1,1.1-1.7,1.3-2.8-0.2c-0.9-1.2-3.2-5.5-1.2-6.6c2-1.1,3.6-1.7,4.4,1.2
						C426,96.2,426.1,97.5,424.8,98.8z"/>
					
						<ellipse transform="matrix(-0.9257 -0.3783 0.3783 -0.9257 780.4189 353.4846)" class="st52" cx="424.9" cy="100.1" rx="1.5" ry="2.8"/>
					<path class="st52" d="M413,113c-0.6-0.8-4.8-7.6-3-7.9c1.9-0.3,4.1,2,4.8,2.9c1.2,1.6,1.1,3.7,0.3,4.7
						C414.5,113.3,413.5,113.8,413,113z"/>
					
						<linearGradient id="SVGID_52_" gradientUnits="userSpaceOnUse" x1="330.7466" y1="398.8134" x2="364.4776" y2="380.405" gradientTransform="matrix(0.6224 0.7827 -0.7827 0.6224 503.3632 -393.2634)">
						<stop  offset="0" style="stop-color:#36078B"/>
						<stop  offset="1" style="stop-color:#168D68"/>
					</linearGradient>
					<path class="st58" d="M423.8,139.3c1.4-0.7,3.5-4.4,6.3-12.8c1.7-5.1,2.1-7.4,2.4-9c0.6-2.9-1.8-4.8-3.3-4.5
						c-2.5,0.5-5.5,2.7-5.9,4.3c-2.2,8.5-3.3,15.2-4.2,17.1C417.8,137.2,422.2,140,423.8,139.3z"/>
					<linearGradient id="SVGID_53_" gradientUnits="userSpaceOnUse" x1="420.8138" y1="97.6775" x2="411.0634" y2="82.4269">
						<stop  offset="0" style="stop-color:#36078B"/>
						<stop  offset="1" style="stop-color:#16B1FF"/>
					</linearGradient>
					<path class="st59" d="M423.4,91.8c-1.4,0.9-7.6,2.6-9.5,3.1c0,0,2.5-1.3,2.9-2c0,0-4.3,0.6-7,0c0,0,1.4-0.8,1.8-1.4
						c0,0-2,0-3.3-0.6c0,0,6.8-4.6,12.7-3C424.1,88.9,424.8,90.8,423.4,91.8z"/>
				</g>
				<g>
					<defs>
						<path id="SVGID_54_" d="M435,245.5c-0.6-1.8-0.7-2.7-0.7-3.3c0.1,0,0.1-0.1,0.1-0.6c0.2-5.3,0.5-33.3-3.2-41.7c0,0,0,0,0,0
							c0-0.2,0-0.4-0.1-0.6c-0.7-4.9-2.6-31.4-3-35.1c0-2.4-0.1-5.3-0.9-8.9c-0.7-7.7,0.8-21,4.2-32c0.5-1.6,0.8-3.2,0.8-4.6
							c0.1-0.5,0.2-0.9,0.2-1.2c0.4-2.1-0.7-3.6-1.9-4.3c-1.1-1.3-2.7-2.2-5.1-2.6c-0.8-0.2-1.7-0.3-2.6-0.4c-0.1-1.4-0.2-2.8-0.3-4
							c1.1-1,1.5-1.8,1.8-3.4c0.7-0.2,1.4-1,1.9-2.1c0.6-1.4,0.5-2.9-0.3-3.2c-0.1,0-0.2-0.1-0.3-0.1c0.3-1,0.1-2.2-0.5-4.2
							c-0.3-1.2-0.8-1.7-1.3-2c0.6-1-0.2-2.5-2.8-3.3c-5.9-1.7-12.7,3-12.7,3c1.3,0.6,3.3,0.6,3.3,0.6c-0.5,0.6-1.8,1.4-1.8,1.4
							c0.3,0.1,0.7,0.1,1.1,0.2c-0.9,1.6-0.4,4.9-0.1,6.1c0.1,0.3,0.2,0.6,0.3,0.8c0.1,2.1,0.4,3.8,0.7,4.8c0.1,0.3,0.2,0.7,0.4,1
							c-0.8-0.5-1.6-0.8-2.3-0.6c-1.1,0.2,0.3,3.2,1.6,5.5c-0.8,0.2-1.7,0.5-2.3,0.8c-2.3,1.2-3.8,2.9-4.6,4.9
							c-2.3,3.4-3.9,6.1-5.1,8.2c-1,0.1-1.9,2.1-1.6,2.8c0,0,0,0,0,0c-0.3,0.5-0.5,1-0.7,1.3c-1.9,3.5,1,6.4,2.9,6.2
							c0.6,0.1,1.2,0,1.7-0.4c0.3-0.3,0.7-0.6,1-1c-0.6,11-0.6,21.9-0.6,21.9s-0.3,6.7,1,15.4l0,0c0.9,9.2,2.6,25.4,3,29.2
							c0.1,0.9,0.2,1.7,0.4,2.4c0,0.4,0.1,0.9,0.2,1.4c1.7,8,6.2,23.7,8.7,39.3c-0.3,0.6-1.7,1.8-3.5,2.6c-1.9,0.8-5.9,1.2-3.7,1.9
							c2.2,0.7,4.9,0.3,6.2,0.1c1.3-0.2,2.6-0.2,4.2-0.2c2.1,0,2.1-0.1,1.8-2.4c-0.1-0.4-0.2-0.8-0.3-1.1
							c-1.6-11.7-0.2-32.9-4.4-42.3c0.6-7.6-0.2-23.8-0.1-30.5c0,0.3,0,0.6,0.1,0.9c0.4,4.9,4,20.6,6.5,29.6c0,0.7,0.1,1.4,0.3,2.3
							c2,7.9,6.5,31,7.3,38.2l0,0c-0.1,0.6-0.1,1-0.2,1.6c-0.2,0.9-1,1.3-1.5,2c-0.6,0.8-1.4,2.2,2,2.2
							C433.4,247.7,435.6,247.5,435,245.5z M415.6,108.7c0,0.4,0,0.8,0,1.2c0,0,0,0-0.1,0c-0.1-0.5-0.2-0.9-0.5-1.4
							C415.3,108.6,415.4,108.7,415.6,108.7z"/>
					</defs>
					<clipPath id="SVGID_55_">
						<use xlink:href="#SVGID_54_"  style="overflow:visible;"/>
					</clipPath>
					
						<linearGradient id="SVGID_56_" gradientUnits="userSpaceOnUse" x1="330.1799" y1="1191.9032" x2="468.5887" y2="1276.9387" gradientTransform="matrix(0.2349 -0.9289 -0.6137 -0.3701 1114.7804 1011.4769)">
						<stop  offset="0" style="stop-color:#0000FF"/>
						<stop  offset="1" style="stop-color:#9E005D"/>
					</linearGradient>
					<path class="st60" d="M440.5,105.6c-11.7-4.5-25.5,8.4-26.6,21.8c-1.2,13.7,9.7,18.1,5,37.6c-3.7,15.4,6.4,29.7,10.4,41.7
						c4.4,13.2-8.4,27.3-4,38.9c10.2,26.8-4.8,41.7,15.4,44.1c20.7,2.4,18.1-9.9,39.4-13.9c18.5-3.5,10.8-50.8,5.6-68.4
						c-5.5-18.7-17.1-20-16.1-41.1c0.6-12.7,1.6-20-12.8-30.9C449.4,129.7,462.9,114.3,440.5,105.6z"/>
				</g>
			</g>
			<g>
				<ellipse class="st24" cx="274.3" cy="246.7" rx="24.6" ry="1.9"/>
				<g>
					<linearGradient id="SVGID_57_" gradientUnits="userSpaceOnUse" x1="292.25" y1="136.6778" x2="253.25" y2="108.5528">
						<stop  offset="0" style="stop-color:#2C27CE"/>
						<stop  offset="0.6488" style="stop-color:#EF1D68"/>
						<stop  offset="1" style="stop-color:#EFBA92"/>
					</linearGradient>
					<path class="st61" d="M268.1,105.4c1.4-2-0.2-5.5-4.2-5.8c-4.5-0.4-12.6,2.2-8.3,12.8c4.5,11,3.1,13.8,0.1,15.5
						c0,0,10.4,0.8,9.6-8.3C264.5,110.6,264.8,110,268.1,105.4z"/>
					
						<linearGradient id="SVGID_58_" gradientUnits="userSpaceOnUse" x1="522.4396" y1="21.4731" x2="510.3908" y2="51.508" gradientTransform="matrix(0.6127 -0.7903 0.7903 0.6127 -63.6987 521.7442)">
						<stop  offset="0" style="stop-color:#F70F47"/>
						<stop  offset="1" style="stop-color:#9E005D"/>
					</linearGradient>
					<path class="st62" d="M288.9,139.9c-1.6-0.3-4.9-1.2-12.1-5.1c-4.4-2.3-6-3.6-7.2-4.4c-2.2-1.5-1.4-3.6-0.1-4.1
						c2.2-0.7,5.3-0.2,6.5,0.5c6.7,4.2,11.7,7.5,13.6,8.3C292.3,136.3,290.8,140.2,288.9,139.9z"/>
					
						<linearGradient id="SVGID_59_" gradientUnits="userSpaceOnUse" x1="441.4628" y1="21.7766" x2="427.9691" y2="55.4131" gradientTransform="matrix(0.8532 -0.5216 0.5216 0.8532 -99.1922 314.7629)">
						<stop  offset="0" style="stop-color:#F70F47"/>
						<stop  offset="1" style="stop-color:#9E005D"/>
					</linearGradient>
					<path class="st63" d="M300.6,126c0.1,1.2-1.3,1.4-3.2,4.6c-2.8,4.6-3.8,5.7-6.6,8.5c-1.9,1.8-5.3-0.1-3.5-2.7
						c1.5-2.2,10.2-10.2,11.2-11.6C299.1,123.9,300.5,125.1,300.6,126z"/>
					<path class="st46" d="M266.5,118.7c0,0.2-0.4,5-0.4,8.7c0,1.8,1.3,3.5,2.6,3.6c0,0,0,0,0.1,0c1.3,0,2.8-1.6,2.7-3.4
						c-0.2-3.2-0.1-6.5,0-6.6L266.5,118.7z"/>
					<linearGradient id="SVGID_60_" gradientUnits="userSpaceOnUse" x1="270.612" y1="133.3392" x2="275.0661" y2="171.5923">
						<stop  offset="0" style="stop-color:#F70F47"/>
						<stop  offset="1" style="stop-color:#9E005D"/>
					</linearGradient>
					<path class="st64" d="M262.8,139.5c1.1,3.3,1.7,6.7,2.3,10.1c0.4,2.5,0.3,5.1,0,7.6c-0.2,1.5-0.5,3-0.8,4.5
						c-0.1,0.6-1.2,5.1-1.3,5.6c0,0,19.7,0,20.8,0c-0.2-4.1-4.8-16.9-1.7-25.2c2.2-5.8-0.7-5.9-2.7-10.7c-0.5-1.2-0.9-2.5-1.7-3.5
						c-0.8-1-2-1.7-3.2-2c-0.6-0.2-1.3-0.2-1.9-0.3c-3.5-0.3-11.8-1.3-12.6,3.7c-0.2,1.4,0,2.7,0.4,4.1c0.5,1.5,1.2,2.8,1.7,4.3
						C262.4,138.3,262.6,138.9,262.8,139.5z"/>
					<linearGradient id="SVGID_61_" gradientUnits="userSpaceOnUse" x1="278.5325" y1="159.9204" x2="260.8874" y2="211.2804">
						<stop  offset="0" style="stop-color:#36078B"/>
						<stop  offset="1" style="stop-color:#168D68"/>
					</linearGradient>
					<path class="st65" d="M263,180.5c0,0-1.8-4.5-0.1-13.2h20.8c0,0,0.7,6.2,0.8,13.2H263z"/>
					<g>
						<g>
							
								<linearGradient id="SVGID_62_" gradientUnits="userSpaceOnUse" x1="251.1856" y1="193.9157" x2="233.1501" y2="246.4118" gradientTransform="matrix(0.988 0.1543 -0.1543 0.988 71.4753 -66.0641)">
								<stop  offset="0" style="stop-color:#36078B"/>
								<stop  offset="1" style="stop-color:#168D68"/>
							</linearGradient>
							<path class="st66" d="M266.7,209.8c2.7-6.7-3.9-9-6.9-4.3c-4.2,6.6-6,31.2-6.5,35.7c-0.1,0.6,0.3,0.5,0.6,0.5
								c1-0.2,0.6-1.2,2.1-1.1c0.8,0,1,1.1,1,1.1C258.6,235.6,264.1,216.2,266.7,209.8z"/>
							<linearGradient id="SVGID_63_" gradientUnits="userSpaceOnUse" x1="275.6929" y1="158.9452" x2="258.0484" y2="210.3034">
								<stop  offset="0" style="stop-color:#36078B"/>
								<stop  offset="1" style="stop-color:#168D68"/>
							</linearGradient>
							<path class="st67" d="M273.4,181.5c0.7-8.7-2.6-15.5-7.8-12.6c-2.2,1.2-3,3.6-3.3,5.9c-0.3,2.3-1.9,26.1-2.5,30.4
								c-1.3,9.7,6.1,7.1,6.9,4.4C268.7,202.8,273,186.2,273.4,181.5z"/>
						</g>
					</g>
					<linearGradient id="SVGID_64_" gradientUnits="userSpaceOnUse" x1="300.8253" y1="167.5791" x2="283.1806" y2="218.9378">
						<stop  offset="0" style="stop-color:#36078B"/>
						<stop  offset="0.4089" style="stop-color:#293E7D"/>
						<stop  offset="1" style="stop-color:#168D68"/>
					</linearGradient>
					<path class="st68" d="M285.7,208.4c0.3-6.6-5.9-6.4-7.4-1.1c-2.4,8.4,1.8,26.4,2,36.7c1.1-1.8,2.1-2.2,2.6-2.2
						c0.8,0.1,1.2,0.7,1.2,0.7C283.9,229,285.4,215.4,285.7,208.4z"/>
					<linearGradient id="SVGID_65_" gradientUnits="userSpaceOnUse" x1="289.1557" y1="163.5708" x2="271.5113" y2="214.9285">
						<stop  offset="0" style="stop-color:#36078B"/>
						<stop  offset="1" style="stop-color:#168D68"/>
					</linearGradient>
					<path class="st69" d="M278.5,209.1c0.8,2.7,7.9,5.8,7.1-4c-0.3-4.3-1.2-28.2-1.4-30.5c-0.2-2.3-0.6-5.7-1.7-6.1
						c-5.6-2.1-11,4.8-9.5,13.4C274.1,187.7,276.8,203.5,278.5,209.1z"/>
					<path class="st52" d="M264,115.2c0.4,4.1,0.5,5,2.3,6.7c1.8,1.7,4.4,2.5,6.3,2.5c2.1,0,3.7-2.2,4.1-4c0.5-1.8,1.1-6,0.5-10.5
						c-0.3-2.3-3.1-5-6-5C268.4,104.8,263,105.1,264,115.2z"/>
					<linearGradient id="SVGID_66_" gradientUnits="userSpaceOnUse" x1="283.9984" y1="264.0566" x2="285.9939" y2="239.4797">
						<stop  offset="0" style="stop-color:#2C27CE"/>
						<stop  offset="0.6488" style="stop-color:#EF1D68"/>
						<stop  offset="1" style="stop-color:#EFBA92"/>
					</linearGradient>
					<path class="st70" d="M284.3,242.5c0.2,0.5,1.4,1.5,3,2.2s4.9,1,3.1,1.7c-1.9,0.6-4,0.2-5.1,0.1c-1.1-0.2-2.2-0.2-3.5-0.2
						c-1.7,0-1.7-0.1-1.5-2C280.6,241.6,283.5,241,284.3,242.5z"/>
					<linearGradient id="SVGID_67_" gradientUnits="userSpaceOnUse" x1="255.8027" y1="268.6202" x2="258.318" y2="237.6427">
						<stop  offset="0" style="stop-color:#2C27CE"/>
						<stop  offset="0.6488" style="stop-color:#EF1D68"/>
						<stop  offset="1" style="stop-color:#EFBA92"/>
					</linearGradient>
					<path class="st71" d="M257,241.3c0.2,0.5,0.5,2.7,2.1,3.4c1.6,0.7,4.9,1,3.1,1.7c-1.9,0.6-4,0.2-5.1,0.1
						c-1.1-0.2-1.3-1.4-2.6-1.4c-1.7,0-1.7-0.1-1.5-2C253.2,240.4,256.2,239.8,257,241.3z"/>
					<linearGradient id="SVGID_68_" gradientUnits="userSpaceOnUse" x1="287.5615" y1="131.3126" x2="265.4368" y2="106.063">
						<stop  offset="0" style="stop-color:#2C27CE"/>
						<stop  offset="0.6488" style="stop-color:#EF1D68"/>
						<stop  offset="1" style="stop-color:#EFBA92"/>
					</linearGradient>
					<path class="st72" d="M276.6,107.7c1.6,2.7-10.1,7.8-12.7,7.4c-2.6-0.4-2.6-6-0.6-8.5C265.3,104.1,272.8,101.2,276.6,107.7z"/>
					<linearGradient id="SVGID_69_" gradientUnits="userSpaceOnUse" x1="292.1156" y1="127.3231" x2="269.9904" y2="102.0729">
						<stop  offset="0" style="stop-color:#2C27CE"/>
						<stop  offset="0.6488" style="stop-color:#EF1D68"/>
						<stop  offset="1" style="stop-color:#EFBA92"/>
					</linearGradient>
					<path class="st73" d="M272.2,107c0.4,2.3,4.5,2.9,5.2,4.8c0.4,1.2,0.6-2.6-0.3-4.3C276.2,105.8,271.4,102.3,272.2,107z"/>
					
						<ellipse transform="matrix(0.9258 -0.3781 0.3781 0.9258 -24.1811 108.3626)" class="st52" cx="263.9" cy="115.8" rx="1.5" ry="2.8"/>
					<g class="st74">
						
							<linearGradient id="SVGID_70_" gradientUnits="userSpaceOnUse" x1="180.8853" y1="507.3134" x2="180.8853" y2="385.8206" gradientTransform="matrix(0.5828 0.8126 -0.8126 0.5828 529.7625 -246.2962)">
							<stop  offset="0" style="stop-color:#2C27CE"/>
							<stop  offset="1" style="stop-color:#EF1D68"/>
						</linearGradient>
						<path class="st75" d="M303.1,169.3l10.4-7.5l5.2-3.7c1.2-0.8,1.4-2.5,0.6-3.7l-26.2-36.5c-0.8-1.2-2.5-1.4-3.7-0.6l-5.2,3.7
							l-64.4,46.2c-1.2,0.8-1.4,2.5-0.6,3.6l26.2,36.5c0.8,1.2,2.5,1.4,3.6,0.6l43.3-31c0.4,0.3,0.9,0.3,1.3,0l9.1-6.5
							C303.1,170.2,303.3,169.7,303.1,169.3z"/>
						<g>
							<g>
								<g>
									<path class="st76" d="M234.2,187.8L234.2,187.8c-0.8-1.1-0.5-2.6,0.6-3.4l0,0c1.1-0.8,2.6-0.5,3.4,0.6l0,0
										c0.8,1.1,0.5,2.6-0.6,3.4l0,0C236.5,189.2,235,188.9,234.2,187.8z"/>
								</g>
							</g>
							<g>
								<g>
									<path class="st76" d="M296.5,131.9L296.5,131.9c-0.3-0.4-0.2-1.1,0.2-1.4l0,0c0.4-0.3,1.1-0.2,1.4,0.2l0,0
										c0.3,0.4,0.2,1.1-0.2,1.4l0,0C297.5,132.5,296.9,132.4,296.5,131.9z"/>
								</g>
							</g>
							<path class="st76" d="M305.3,143.1l-5.8-8.1c-0.1-0.2-0.1-0.4,0.1-0.5c0.2-0.1,0.4-0.1,0.5,0.1l5.8,8.1
								c0.1,0.2,0.1,0.4-0.1,0.5C305.6,143.3,305.4,143.2,305.3,143.1z"/>
							
								<linearGradient id="SVGID_71_" gradientUnits="userSpaceOnUse" x1="180.519" y1="519.4747" x2="180.519" y2="419.4987" gradientTransform="matrix(0.5828 0.8126 -0.8126 0.5828 529.7625 -246.2962)">
								<stop  offset="0" style="stop-color:#2CA6EF"/>
								<stop  offset="1" style="stop-color:#B1FFFF"/>
							</linearGradient>
							<polygon class="st77" points="313,161 254.4,203.1 226.2,163.8 284.8,121.8 							"/>
						</g>
						<polygon class="st78" points="304.5,149.2 257.4,141.4 272.2,130.9 293.9,134.4 						"/>
						<polygon class="st78" points="311.8,159.4 247.2,148.8 254.5,143.5 306.6,152.1 						"/>
					</g>
					<g>
						<path class="st52" d="M264.5,152.7c1.2,0,2.7,0.1,3.5,0.6c0.8,0.5-1.2,0.5-2.1,0.6C265,154,263.4,152.8,264.5,152.7z"/>
						<path class="st52" d="M265.6,153.5c2.3,1.2,3.7,1.4,4.4,2.5c0.7,1-1.6,1.4-2.5,1.1c-0.9-0.3-4-1.1-4.4-2.2
							C262.7,153.9,263.9,152.6,265.6,153.5z"/>
					</g>
					
						<linearGradient id="SVGID_72_" gradientUnits="userSpaceOnUse" x1="141.5028" y1="184.0071" x2="127.0084" y2="220.1381" gradientTransform="matrix(0.7136 0.1829 -0.2603 0.9654 211.6105 -79.2705)">
						<stop  offset="0" style="stop-color:#F70F47"/>
						<stop  offset="1" style="stop-color:#9E005D"/>
					</linearGradient>
					<path class="st79" d="M247.8,144.1c0.6-1.5,2.3-4.6,7.5-10.7c3.2-3.8,4.8-5.1,5.9-6.1c1.9-1.8,3.9-0.6,4,0.8
						c0.3,2.3-0.9,5.2-1.9,6.2c-5.5,5.7-9.8,9.8-11,11.5C250.6,148.1,247.1,145.8,247.8,144.1z"/>
					
						<linearGradient id="SVGID_73_" gradientUnits="userSpaceOnUse" x1="189.7714" y1="288.3801" x2="179.213" y2="314.6994" gradientTransform="matrix(0.8139 0.581 -0.581 0.8139 288.8925 -208.472)">
						<stop  offset="0" style="stop-color:#F70F47"/>
						<stop  offset="1" style="stop-color:#9E005D"/>
					</linearGradient>
					<path class="st80" d="M263.9,155c-1.2,0.3-1.6-1.1-5.2-2.6c-5.2-2.1-6.4-3-9.8-5.5c-2.2-1.6-0.7-5.4,2.3-4
						c2.5,1.2,12.1,9,13.6,9.7C265.8,153.1,264.8,154.7,263.9,155z"/>
					<path class="st52" d="M298.3,126.4c-0.5-0.5-1.2-1.4-1.6-2.3c-0.2-0.6,0-1.3,0.6-1.2c0.6,0.1,2.3,0.9,2.7,1.7
						c0.3,0.7,0.3,1.6,0,2.3C299.8,127.5,299.1,127.3,298.3,126.4z"/>
				</g>
				<g>
					<defs>
						<path id="SVGID_74_" d="M319.3,154.4l-19.4-27.1c0.5-0.5,0.7-0.8,0.7-1.3c0-0.3-0.2-0.6-0.4-0.8c0-0.2-0.1-0.4-0.2-0.6
							c-0.4-0.8-2.1-1.7-2.7-1.7c-0.2,0-0.4,0.1-0.5,0.2l-3.7-5.1c-0.8-1.2-2.5-1.4-3.7-0.6l-5.2,3.7l-8,5.7
							c-0.6-0.3-1.2-0.6-1.8-0.8c-0.6-0.2-1.3-0.2-1.9-0.3c-0.4,0-0.8-0.1-1.3-0.1c0-0.5,0-0.9,0-1.4c0.5,0.1,0.9,0.1,1.4,0.1
							c2.1,0,3.7-2.2,4.1-4c0.4-1.5,0.9-4.8,0.7-8.5c0.4,1,0.6-2.7-0.3-4.3c-0.5-0.9-2-2.3-3.3-2.7c-1.7-1-3.5-1.2-5.3-0.9
							c0-1.9-1.6-3.9-4.7-4.2c-4.5-0.4-12.6,2.2-8.3,12.8c4.5,11,3.1,13.8,0.1,15.5c0,0,3,0.2,5.6-0.9c-0.3,0.2-0.5,0.5-0.7,0.8
							c-1.1,1-2.6,2.4-5.2,5.5c-5.3,6.2-6.9,9.3-7.5,10.7c-0.1,0.3-0.1,0.7,0,1c0.1,0.5,0.3,1.1,0.7,1.5l-28.7,20.6
							c-1.2,0.8-1.4,2.5-0.6,3.6l26.2,36.5c0.8,1.2,2.5,1.4,3.6,0.6l11.1-8c-0.2,2.3-0.4,4.2-0.5,5.1c0,0.2,0,0.4-0.1,0.6
							c-4,7-5.8,30.9-6.3,35.4c0,0.2,0,0.4,0.1,0.4c-0.3,0.4-0.4,0.8-0.5,1.4c-0.2,1.9-0.2,2,1.5,2c1.3,0,1.5,1.2,2.6,1.4
							c1.1,0.2,3.3,0.6,5.1-0.1c1.9-0.6-1.5-1-3.1-1.7c-1.4-0.6-1.8-2.4-2-3.2c1.7-6.2,7-25.4,9.7-31.8c0.4-1,0.6-1.9,0.6-2.6
							c1.2-4.1,2.7-9.8,3.9-15l3.2-2.3c1.1,6.2,2.5,13.8,3.7,18c-2.1,8.6,1.9,26.1,2.2,36.2c0,0,0,0,0,0c0,0.1,0,0.1,0,0.2
							c-0.2,1.9-0.2,2,1.5,2c1.3,0,2.4,0,3.5,0.2c1.1,0.2,3.3,0.6,5.1-0.1c1.9-0.6-1.5-1-3.1-1.7s-2.7-1.8-3-2.2
							c-0.1-0.1-0.2-0.2-0.3-0.3c-0.1-13.4,1.3-26.8,1.6-33.8c0-0.4,0-0.8,0-1.2c0-0.6,0-1.3,0-2.1c-0.2-2.9-0.7-14.5-1-22.6
							l7.8-5.6c0.4,0.3,0.9,0.3,1.3,0l9.1-6.5c0.4-0.3,0.5-0.8,0.4-1.2l10.4-7.5l5.2-3.7C319.9,157.2,320.2,155.6,319.3,154.4z
							 M256.5,240.8c-0.1-0.1-0.2-0.1-0.3-0.2C256.3,240.7,256.4,240.7,256.5,240.8z M265.3,120.7c0.3,0.4,0.6,0.7,1,1.1
							c-0.1,1.1-0.1,2.4-0.2,3.6c-1.2,0.1-2.3,0.3-3.3,0.7C264.2,125.1,265.3,123.4,265.3,120.7z M261.5,136.2
							c0.1,0.3,0.3,0.6,0.4,0.9l-4.5,3.2C258.6,139.1,260,137.7,261.5,136.2z"/>
					</defs>
					<clipPath id="SVGID_75_">
						<use xlink:href="#SVGID_74_"  style="overflow:visible;"/>
					</clipPath>
					
						<linearGradient id="SVGID_76_" gradientUnits="userSpaceOnUse" x1="158.1448" y1="1499.4767" x2="270.6891" y2="1568.6216" gradientTransform="matrix(0.4993 -0.8629 -0.5728 -0.489 1012.4465 1127.2429)">
						<stop  offset="0" style="stop-color:#0000FF"/>
						<stop  offset="1" style="stop-color:#9E005D"/>
					</linearGradient>
					<path class="st81" d="M233.3,133.9c-13.6,2.7-14.4-14.6-19.1-1.7c-4.9,13.2,9.2-2.4-1.1,15.7c-8.1,14.3-0.8,30.4,0.4,43
						c1.3,13.8-16.3,25-14.5,37.4c4.2,28.4-16.1,39.9,5.3,46.4c22,6.6,22.4-6,46.6-5.5c21.1,0.4,25.1-47.6,24-66
						c-1.1-19.5-8.7-24.2-2.1-44.7c4-12.3,1.1-24.6-10-28.2C255.7,128,249.6,130.6,233.3,133.9z"/>
				</g>
			</g>
		</g>
	</g>
	<g>
		<g>
			<g>
				<defs>
					<path id="SVGID_77_" d="M460,6.7v293c0,1.9-1.6,3.5-3.5,3.5h-443c-1.9,0-3.5-1.6-3.5-3.5V6.7c0-1.9,1.6-3.5,3.5-3.5h443
						C458.5,3.2,460,4.8,460,6.7z"/>
				</defs>
				<clipPath id="SVGID_78_">
					<use xlink:href="#SVGID_77_"  style="overflow:visible;"/>
				</clipPath>
				<g class="st82">
					<defs>
						<path id="SVGID_79_" d="M474.7,149.7c-15.2,44.9-52.3,40.1-70.1,21.8c-25.2-26-17.1-44.1-70-23.8c-18,6.9-39.3,6.9-55.9-3.8
							c-11.9-7.7-20.4-20.7-21.9-34.7c-0.8-7.8,0.4-15.7,0.4-23.6c-0.1-7.9-1.7-16.3-7.3-21.9c-5.3-5.4-13.3-7.2-20.9-7.5
							c-18.2-0.8-36.3,6-54.5,3.6c-15.4-2-31.9-10.2-41-23c-11.9-16.7-11.1-39.1-8.7-58.5c2.8-22.8,10.3-44.9,21.2-65.1
							c13.9-25.8,33.3-48.5,55.4-67.8c19.7-17.2,41.9-31.9,66.5-40.8c38.9-14,98.5-15.3,116.2,30.7c21.3,55.4-37.1,78,14.1,90.1
							c30.7,7.2,75.1,38.2,40,94.3C403,76,496.7,85.1,474.7,149.7z"/>
					</defs>
					<clipPath id="SVGID_80_">
						<use xlink:href="#SVGID_79_"  style="overflow:visible;"/>
					</clipPath>
				</g>
			</g>
			<g>
				<g>
					<defs>
						<path id="SVGID_81_" d="M435,245.5c-0.6-1.8-0.7-2.7-0.7-3.3c0.1,0,0.1-0.1,0.1-0.6c0.2-5.3,0.5-33.3-3.2-41.7c0,0,0,0,0,0
							c0-0.2,0-0.4-0.1-0.6c-0.7-4.9-2.6-31.4-3-35.1c0-2.4-0.1-5.3-0.9-8.9c-0.7-7.7,0.8-21,4.2-32c0.5-1.6,0.8-3.2,0.8-4.6
							c0.1-0.5,0.2-0.9,0.2-1.2c0.4-2.1-0.7-3.6-1.9-4.3c-1.1-1.3-2.7-2.2-5.1-2.6c-0.8-0.2-1.7-0.3-2.6-0.4c-0.1-1.4-0.2-2.8-0.3-4
							c1.1-1,1.5-1.8,1.8-3.4c0.7-0.2,1.4-1,1.9-2.1c0.6-1.4,0.5-2.9-0.3-3.2c-0.1,0-0.2-0.1-0.3-0.1c0.3-1,0.1-2.2-0.5-4.2
							c-0.3-1.2-0.8-1.7-1.3-2c0.6-1-0.2-2.5-2.8-3.3c-5.9-1.7-12.7,3-12.7,3c1.3,0.6,3.3,0.6,3.3,0.6c-0.5,0.6-1.8,1.4-1.8,1.4
							c0.3,0.1,0.7,0.1,1.1,0.2c-0.9,1.6-0.4,4.9-0.1,6.1c0.1,0.3,0.2,0.6,0.3,0.8c0.1,2.1,0.4,3.8,0.7,4.8c0.1,0.3,0.2,0.7,0.4,1
							c-0.8-0.5-1.6-0.8-2.3-0.6c-1.1,0.2,0.3,3.2,1.6,5.5c-0.8,0.2-1.7,0.5-2.3,0.8c-2.3,1.2-3.8,2.9-4.6,4.9
							c-2.3,3.4-3.9,6.1-5.1,8.2c-1,0.1-1.9,2.1-1.6,2.8c0,0,0,0,0,0c-0.3,0.5-0.5,1-0.7,1.3c-1.9,3.5,1,6.4,2.9,6.2
							c0.6,0.1,1.2,0,1.7-0.4c0.3-0.3,0.7-0.6,1-1c-0.6,11-0.6,21.9-0.6,21.9s-0.3,6.7,1,15.4l0,0c0.9,9.2,2.6,25.4,3,29.2
							c0.1,0.9,0.2,1.7,0.4,2.4c0,0.4,0.1,0.9,0.2,1.4c1.7,8,6.2,23.7,8.7,39.3c-0.3,0.6-1.7,1.8-3.5,2.6c-1.9,0.8-5.9,1.2-3.7,1.9
							c2.2,0.7,4.9,0.3,6.2,0.1c1.3-0.2,2.6-0.2,4.2-0.2c2.1,0,2.1-0.1,1.8-2.4c-0.1-0.4-0.2-0.8-0.3-1.1
							c-1.6-11.7-0.2-32.9-4.4-42.3c0.6-7.6-0.2-23.8-0.1-30.5c0,0.3,0,0.6,0.1,0.9c0.4,4.9,4,20.6,6.5,29.6c0,0.7,0.1,1.4,0.3,2.3
							c2,7.9,6.5,31,7.3,38.2l0,0c-0.1,0.6-0.1,1-0.2,1.6c-0.2,0.9-1,1.3-1.5,2c-0.6,0.8-1.4,2.2,2,2.2
							C433.4,247.7,435.6,247.5,435,245.5z M415.6,108.7c0,0.4,0,0.8,0,1.2c0,0,0,0-0.1,0c-0.1-0.5-0.2-0.9-0.5-1.4
							C415.3,108.6,415.4,108.7,415.6,108.7z"/>
					</defs>
					<clipPath id="SVGID_82_">
						<use xlink:href="#SVGID_81_"  style="overflow:visible;"/>
					</clipPath>
				</g>
			</g>
			<g>
				<g>
					<defs>
						<path id="SVGID_83_" d="M319.3,154.4l-19.4-27.1c0.5-0.5,0.7-0.8,0.7-1.3c0-0.3-0.2-0.6-0.4-0.8c0-0.2-0.1-0.4-0.2-0.6
							c-0.4-0.8-2.1-1.7-2.7-1.7c-0.2,0-0.4,0.1-0.5,0.2l-3.7-5.1c-0.8-1.2-2.5-1.4-3.7-0.6l-5.2,3.7l-8,5.7
							c-0.6-0.3-1.2-0.6-1.8-0.8c-0.6-0.2-1.3-0.2-1.9-0.3c-0.4,0-0.8-0.1-1.3-0.1c0-0.5,0-0.9,0-1.4c0.5,0.1,0.9,0.1,1.4,0.1
							c2.1,0,3.7-2.2,4.1-4c0.4-1.5,0.9-4.8,0.7-8.5c0.4,1,0.6-2.7-0.3-4.3c-0.5-0.9-2-2.3-3.3-2.7c-1.7-1-3.5-1.2-5.3-0.9
							c0-1.9-1.6-3.9-4.7-4.2c-4.5-0.4-12.6,2.2-8.3,12.8c4.5,11,3.1,13.8,0.1,15.5c0,0,3,0.2,5.6-0.9c-0.3,0.2-0.5,0.5-0.7,0.8
							c-1.1,1-2.6,2.4-5.2,5.5c-5.3,6.2-6.9,9.3-7.5,10.7c-0.1,0.3-0.1,0.7,0,1c0.1,0.5,0.3,1.1,0.7,1.5l-28.7,20.6
							c-1.2,0.8-1.4,2.5-0.6,3.6l26.2,36.5c0.8,1.2,2.5,1.4,3.6,0.6l11.1-8c-0.2,2.3-0.4,4.2-0.5,5.1c0,0.2,0,0.4-0.1,0.6
							c-4,7-5.8,30.9-6.3,35.4c0,0.2,0,0.4,0.1,0.4c-0.3,0.4-0.4,0.8-0.5,1.4c-0.2,1.9-0.2,2,1.5,2c1.3,0,1.5,1.2,2.6,1.4
							c1.1,0.2,3.3,0.6,5.1-0.1c1.9-0.6-1.5-1-3.1-1.7c-1.4-0.6-1.8-2.4-2-3.2c1.7-6.2,7-25.4,9.7-31.8c0.4-1,0.6-1.9,0.6-2.6
							c1.2-4.1,2.7-9.8,3.9-15l3.2-2.3c1.1,6.2,2.5,13.8,3.7,18c-2.1,8.6,1.9,26.1,2.2,36.2c0,0,0,0,0,0c0,0.1,0,0.1,0,0.2
							c-0.2,1.9-0.2,2,1.5,2c1.3,0,2.4,0,3.5,0.2c1.1,0.2,3.3,0.6,5.1-0.1c1.9-0.6-1.5-1-3.1-1.7s-2.7-1.8-3-2.2
							c-0.1-0.1-0.2-0.2-0.3-0.3c-0.1-13.4,1.3-26.8,1.6-33.8c0-0.4,0-0.8,0-1.2c0-0.6,0-1.3,0-2.1c-0.2-2.9-0.7-14.5-1-22.6
							l7.8-5.6c0.4,0.3,0.9,0.3,1.3,0l9.1-6.5c0.4-0.3,0.5-0.8,0.4-1.2l10.4-7.5l5.2-3.7C319.9,157.2,320.2,155.6,319.3,154.4z
							 M256.5,240.8c-0.1-0.1-0.2-0.1-0.3-0.2C256.3,240.7,256.4,240.7,256.5,240.8z M265.3,120.7c0.3,0.4,0.6,0.7,1,1.1
							c-0.1,1.1-0.1,2.4-0.2,3.6c-1.2,0.1-2.3,0.3-3.3,0.7C264.2,125.1,265.3,123.4,265.3,120.7z M261.5,136.2
							c0.1,0.3,0.3,0.6,0.4,0.9l-4.5,3.2C258.6,139.1,260,137.7,261.5,136.2z"/>
					</defs>
					<clipPath id="SVGID_84_">
						<use xlink:href="#SVGID_83_"  style="overflow:visible;"/>
					</clipPath>
				</g>
			</g>
		</g>
	</g>
</g>
<g id="Designed_by_Freepik">
	<g>
		<g>
			<g id="XMLID_197_">
				<g id="XMLID_216_">
					<path id="XMLID_224_" class="st83" d="M499.4,563.9c-0.5,0.5-0.9,1.1-1.3,1.6l-0.5-0.3c-0.1-0.3-0.4-0.6-0.7-0.5
						c-0.4,0-0.6,0.4-0.6,0.8c0,0.4,0.4,0.6,0.8,0.6c0.1,0,0.1,0,0.2-0.1l0.5,0.3c-0.3,0.6-0.5,1.3-0.6,2l0.8,0.1
						c0.3-1.5,1-2.8,2-3.9L499.4,563.9z"/>
					<path id="XMLID_223_" class="st83" d="M505.7,561.3c-0.2,0-0.4,0-0.6,0l-0.1-0.7c0.2-0.2,0.3-0.4,0.3-0.7
						c-0.1-0.4-0.5-0.8-0.9-0.7c-0.4,0.1-0.8,0.5-0.7,0.9c0,0.3,0.2,0.5,0.5,0.6l0.1,0.7c-0.8,0.1-1.6,0.4-2.3,0.7l0.4,0.8
						c1.1-0.5,2.2-0.8,3.4-0.8c0.6,0,1.1,0.1,1.7,0.2l0.2-0.8C506.9,561.4,506.3,561.3,505.7,561.3z"/>
					<path id="XMLID_222_" class="st83" d="M513.1,564.2c0.4,0,0.6-0.4,0.6-0.8c0-0.4-0.4-0.6-0.8-0.6c-0.4,0-0.6,0.3-0.6,0.7
						l-0.5,0.4c-0.5-0.5-1-0.9-1.6-1.3l-0.5,0.7c1.3,0.8,2.3,2,2.9,3.3l0.8-0.4c-0.3-0.6-0.6-1.2-1.1-1.8l0.5-0.4
						C513,564.2,513.1,564.2,513.1,564.2z"/>
					<path id="XMLID_221_" class="st83" d="M505,572.8c-0.4,0-0.9,0-1.3,0c-1,0-2-0.1-2.8-0.2c-0.4-0.1-1-0.2-1.4-0.3
						c1.2,2.1,3.5,3.5,6.1,3.5c3.2,0,6-2.2,6.7-5.1c-0.8,0.5-1.7,0.9-2.8,1.3C508.2,572.5,506.6,572.7,505,572.8z"/>
					<path id="XMLID_217_" class="st83" d="M505.7,563c-3.8,0-6.9,3-6.9,6.7c0,0.5,0.1,1,0.2,1.4c0.8,0.5,3.1,1,6.1,0.8
						c3.3-0.2,6-1.1,7.6-2.4c0-0.2,0-0.4-0.1-0.7C512.1,565.5,509.1,563,505.7,563z M503.2,570.4c-1.2,0-2.1-0.9-2.1-2.1
						c0-1.2,0.9-2.1,2.1-2.1c1.2,0,2.1,0.9,2.1,2.1C505.3,569.4,504.4,570.4,503.2,570.4z M508.6,569.4c-0.8,0-1.5-0.7-1.5-1.5
						c0-0.8,0.7-1.5,1.5-1.5c0.8,0,1.5,0.7,1.5,1.5C510.1,568.7,509.4,569.4,508.6,569.4z"/>
				</g>
				<path id="XMLID_214_" class="st83" d="M523.8,565.1c-0.3-0.1-0.9-0.3-1.6-0.3c-0.6,0.1-1,0.4-1,1.1v1h2.5v1.9h-2.5v6.2h-2.2
					v-6.2h-1.5V567h1.5v-1c0-1.9,1-3.2,2.9-3.2c0.7,0,1.3,0.1,1.8,0.3V565.1z"/>
				<path id="XMLID_212_" class="st83" d="M529.1,568.9c-0.2,0-0.4-0.1-0.6-0.1c-1,0-1.7,0.6-1.7,1.8v4.4h-2.2V567h2.1v0.9
					c0.5-0.8,1.3-1.1,2.3-1.1c0.5,0,1,0.1,1.2,0.4L529.1,568.9z"/>
				<path id="XMLID_209_" class="st83" d="M537.8,571c0,0.3,0,0.6,0,0.7H532c0.2,1.2,1.1,1.7,2.1,1.7c0.7,0,1.5-0.3,2.1-0.8l1.3,1.4
					c-0.9,0.8-2.1,1.2-3.5,1.2c-2.5,0-4.2-1.7-4.2-4.3c0-2.6,1.7-4.3,4.1-4.3C536.2,566.8,537.8,568.5,537.8,571z M532,570.3h3.6
					c-0.2-1-0.8-1.6-1.8-1.6C532.8,568.6,532.2,569.3,532,570.3z"/>
				<path id="XMLID_206_" class="st83" d="M546.5,571c0,0.3,0,0.6,0,0.7h-5.8c0.2,1.2,1.1,1.7,2.1,1.7c0.7,0,1.5-0.3,2.1-0.8
					l1.3,1.4c-0.9,0.8-2.1,1.2-3.5,1.2c-2.5,0-4.2-1.7-4.2-4.3c0-2.6,1.7-4.3,4.1-4.3C544.8,566.8,546.4,568.5,546.5,571z
					 M540.7,570.3h3.6c-0.2-1-0.8-1.6-1.8-1.6C541.5,568.6,540.9,569.3,540.7,570.3z"/>
				<path id="XMLID_203_" class="st83" d="M555.9,571c0,2.4-1.7,4.3-3.9,4.3c-1.1,0-1.9-0.4-2.4-1.1v4.2h-2.2V567h2.1v0.9
					c0.5-0.7,1.3-1.1,2.4-1.1C554.2,566.8,555.9,568.6,555.9,571z M549.5,571c0,1.3,0.8,2.2,2.1,2.2c1.3,0,2.1-1,2.1-2.2
					c0-1.2-0.8-2.2-2.1-2.2C550.3,568.8,549.5,569.7,549.5,571z"/>
				<path id="XMLID_200_" class="st83" d="M559.4,564.3c0,0.8-0.6,1.4-1.4,1.4c-0.8,0-1.4-0.6-1.4-1.4c0-0.8,0.6-1.4,1.4-1.4
					C558.8,562.9,559.4,563.5,559.4,564.3z M559.1,575.1h-2.2V567h2.2V575.1z"/>
				<path id="XMLID_198_" class="st83" d="M562.8,569.9l3.1-2.9h2.7l-3.9,3.8l4,4.3h-2.7l-3.1-3.3v3.3h-2.2V563h2.2V569.9z"/>
			</g>
			<g>
				<path class="st83" d="M413.7,575v-1.2c-0.6,0.8-1.6,1.4-2.7,1.4c-2.1,0-3.6-1.6-3.6-4.2c0-2.6,1.5-4.2,3.6-4.2
					c1.1,0,2.1,0.5,2.7,1.4V564h1.2V575H413.7z M413.7,572.8v-3.6c-0.4-0.7-1.4-1.3-2.4-1.3c-1.6,0-2.6,1.3-2.6,3.1
					c0,1.8,1,3.1,2.6,3.1C412.3,574.1,413.3,573.5,413.7,572.8z"/>
				<path class="st83" d="M416.6,571c0-2.3,1.7-4.2,3.9-4.2c2.4,0,3.8,1.9,3.8,4.3v0.3h-6.5c0.1,1.5,1.2,2.8,2.9,2.8
					c0.9,0,1.8-0.4,2.5-1l0.6,0.8c-0.8,0.8-1.9,1.2-3.2,1.2C418.3,575.2,416.6,573.5,416.6,571z M420.5,567.8
					c-1.7,0-2.6,1.4-2.6,2.7h5.3C423.1,569.3,422.3,567.8,420.5,567.8z"/>
				<path class="st83" d="M425.3,574l0.6-0.9c0.5,0.6,1.5,1.1,2.6,1.1c1.2,0,1.9-0.6,1.9-1.4c0-1.9-5-0.7-5-3.7c0-1.2,1.1-2.3,3-2.3
					c1.4,0,2.3,0.5,3,1.2l-0.6,0.9c-0.5-0.6-1.4-1-2.4-1c-1.1,0-1.8,0.5-1.8,1.3c0,1.8,5,0.6,5,3.7c0,1.3-1.1,2.4-3.2,2.4
					C427.2,575.2,426.1,574.8,425.3,574z"/>
				<path class="st83" d="M433.1,565c0-0.5,0.4-0.8,0.8-0.8c0.5,0,0.8,0.4,0.8,0.8c0,0.5-0.4,0.8-0.8,0.8
					C433.4,565.9,433.1,565.5,433.1,565z M433.3,575v-8h1.2v8H433.3z"/>
				<path class="st83" d="M436.6,577.1l0.6-0.9c0.7,0.8,1.5,1.1,2.6,1.1c1.3,0,2.6-0.6,2.6-2.4v-1.1c-0.6,0.8-1.6,1.4-2.7,1.4
					c-2.1,0-3.6-1.6-3.6-4.1c0-2.6,1.5-4.2,3.6-4.2c1.1,0,2,0.5,2.7,1.4V567h1.2v7.8c0,2.7-1.9,3.5-3.8,3.5
					C438.4,578.3,437.5,578,436.6,577.1z M442.4,572.7v-3.5c-0.4-0.7-1.4-1.3-2.4-1.3c-1.6,0-2.6,1.3-2.6,3.1c0,1.8,1,3.1,2.6,3.1
					C441,574,441.9,573.4,442.4,572.7z"/>
				<path class="st83" d="M451.1,575v-5.2c0-1.4-0.7-1.9-1.8-1.9c-1,0-1.9,0.6-2.4,1.2v5.9h-1.2v-8h1.2v1.2c0.6-0.7,1.7-1.4,2.9-1.4
					c1.7,0,2.6,0.8,2.6,2.6v5.6H451.1z"/>
				<path class="st83" d="M454,571c0-2.3,1.7-4.2,3.9-4.2c2.4,0,3.8,1.9,3.8,4.3v0.3h-6.5c0.1,1.5,1.2,2.8,2.9,2.8
					c0.9,0,1.8-0.4,2.5-1l0.6,0.8c-0.8,0.8-1.9,1.2-3.2,1.2C455.7,575.2,454,573.5,454,571z M457.9,567.8c-1.7,0-2.6,1.4-2.6,2.7
					h5.3C460.5,569.3,459.7,567.8,457.9,567.8z"/>
				<path class="st83" d="M469.1,575v-1.2c-0.6,0.8-1.6,1.4-2.7,1.4c-2.1,0-3.6-1.6-3.6-4.2c0-2.6,1.5-4.2,3.6-4.2
					c1.1,0,2.1,0.5,2.7,1.4V564h1.2V575H469.1z M469.1,572.8v-3.6c-0.4-0.7-1.4-1.3-2.4-1.3c-1.6,0-2.6,1.3-2.6,3.1
					c0,1.8,1,3.1,2.6,3.1C467.7,574.1,468.7,573.5,469.1,572.8z"/>
				<path class="st83" d="M476.3,575V564h1.2v4.3c0.6-0.9,1.6-1.4,2.7-1.4c2.1,0,3.6,1.7,3.6,4.2c0,2.6-1.5,4.2-3.6,4.2
					c-1.1,0-2.1-0.6-2.7-1.4v1.2H476.3z M480,574.1c1.6,0,2.6-1.3,2.6-3.1c0-1.8-1-3.1-2.6-3.1c-1,0-2,0.6-2.4,1.3v3.6
					C478,573.5,479,574.1,480,574.1z"/>
				<path class="st83" d="M485.2,577c0.2,0.1,0.5,0.1,0.7,0.1c0.5,0,0.9-0.2,1.2-0.8l0.5-1.2l-3.4-8.1h1.3l2.7,6.6l2.7-6.6h1.4
					l-4,9.6c-0.5,1.2-1.3,1.6-2.4,1.6c-0.3,0-0.7,0-0.9-0.1L485.2,577z"/>
			</g>
		</g>
	</g>
</g>
</svg>
