<?xml version="1.0" encoding="utf-8"?>
<!-- Generator: Adobe Illustrator 19.0.0, SVG Export Plug-In . SVG Version: 6.00 Build 0)  -->
<svg version="1.1" id="Layer_1" xmlns="http://www.w3.org/2000/svg" xmlns:xlink="http://www.w3.org/1999/xlink" x="0px" y="0px"
	 viewBox="0 0 200 200" style="enable-background:new 0 0 200 200;" xml:space="preserve">
<style type="text/css">
	.st0{fill:#F5AD1B;}
	.st1{fill:#F8C64B;}
	.st2{fill:#2092FD;}
	.st3{fill:#62639A;}
	.st4{fill:#1E92FF;}
	.st5{fill:#6768D6;}
	.st6{fill:#F6AD1B;}
	.st7{fill:#E79F21;}
	.st8{fill:#020202;stroke:#070707;stroke-width:2.3781;stroke-miterlimit:10;}
	.st9{fill:#F1604B;}
	.st10{fill:#070707;}
</style>
<g id="XMLID_30_">
	<g id="XMLID_33_">
		<path class="st0" d="M152.3,171.2v17.3c0,6.9-5.5,12.5-12.5,12.5h-19.1v-28.8v-0.9H152.3z"/>
		<path class="st1" d="M120.7,172.2V201H60c-6.9,0-12.5-5.5-12.5-12.5v-17.3h73.1V172.2z"/>
	</g>
	<g id="XMLID_34_">
	</g>
</g>
<g id="XMLID_7_">
	<g>
		<path class="st2" d="M191.5,75v84c0,16.1-13.2,29.5-29.5,29.5h-39V6.1C160.9,6.3,191.5,37,191.5,75z"/>
		<path class="st3" d="M123,6.1v182.3H37.9c-16.1,0-29.3-13.2-29.3-29.5V75C8.4,37,39.3,6.1,77.3,6.1h45.2
			C122.6,6.1,122.8,6.1,123,6.1z"/>
	</g>
</g>
<path id="XMLID_8_" class="st4" d="M126,152.6H50.8c-14.5,0-26.3-11.8-26.3-26.3v-23.3c0-14.5,11.8-26.3,26.3-26.3h75
	c14.5,0,26.3,11.8,26.3,26.3v23.3C152.3,140.8,140.6,152.6,126,152.6z"/>
<path id="XMLID_9_" class="st5" d="M150.2,152.6H75c-14.5,0-26.3-11.8-26.3-26.3v-23.3c0-14.5,11.8-26.3,26.3-26.3h75
	c14.5,0,26.3,11.8,26.3,26.3v23.3C176.6,140.8,164.8,152.6,150.2,152.6z"/>
<ellipse id="XMLID_17_" class="st2" cx="121.6" cy="39" rx="17.5" ry="17.8"/>
<g id="XMLID_18_">
	<g id="XMLID_22_">
		<path class="st6" d="M164.8,102.7V126c0,14.5-11.8,26.3-26.3,26.3H123V86.8h15.2c13.6,0,24,7.8,26.3,19.8v-5.3
			c0-1.8-0.2-3.5-0.5-5.1C164.6,98.3,164.8,100.4,164.8,102.7z"/>
		<path class="st7" d="M164.6,101.3v5.3c-2.5-12-12.9-19.8-26.3-19.8H123H58c-7.4,0-14.3,2.3-19.4,6.7c3.7-9.9,13.4-17.1,24.7-17.1
			h75.2c12.2,0,22.6,8.3,25.4,19.8l0,0C164.3,97.9,164.6,99.5,164.6,101.3z"/>
		<path class="st7" d="M164.1,96.3c-3-11.3-13.2-19.8-25.4-19.8H63.5c-11.3,0-21,7.2-24.7,17.1c-0.5,0.5-0.9,0.7-1.2,1.2
			C40.9,83.6,51.7,75,64.7,75h73.1C151.2,75.3,161.8,84,164.1,96.3z"/>
		<path class="st1" d="M123,86.8v65.8H63.5c-14.5,0-26.3-11.8-26.3-26.3v-23.3c0-3.2,0.7-6.2,1.6-9.2c5.1-4.4,11.8-6.7,19.4-6.7
			L123,86.8L123,86.8z"/>
	</g>
	<g id="XMLID_23_">
	</g>
</g>
<path id="XMLID_36_" class="st8" d="M94.4,129.9c-9,0-17.5-1.4-24.7-3.9c-2.1-0.7-4.2,1.4-3.2,3.2c5.3,11.5,17.8,19.8,32.5,19.8
	c16.8,0,32.1-14.1,36-29.3c0.5-2.3-2.3-3.9-4.2-2.5C121.9,123.7,108.3,129.9,94.4,129.9z"/>
<path id="XMLID_35_" class="st9" d="M117.7,139.6c1.6,1.6-6.5,6.2-12,6.2c-5.5,0-8.1-3.9-8.1-6.2c0-2.3,1.2-5.5,6.7-5.5
	S114.7,136.4,117.7,139.6z"/>
<ellipse id="XMLID_39_" class="st10" cx="79.7" cy="109.6" rx="8.1" ry="7.2"/>
<ellipse id="XMLID_41_" class="st10" cx="116.6" cy="109.6" rx="8.1" ry="7.2"/>
</svg>
