<?xml version="1.0" encoding="utf-8"?>
<!-- Generator: Adobe Illustrator 19.0.0, SVG Export Plug-In . SVG Version: 6.00 Build 0)  -->
<svg version="1.1" id="Layer_1" xmlns="http://www.w3.org/2000/svg" xmlns:xlink="http://www.w3.org/1999/xlink" x="0px" y="0px"
	 viewBox="0 0 200 200" style="enable-background:new 0 0 200 200;" xml:space="preserve">
<style type="text/css">
	.st0{fill:#F5AD1B;}
	.st1{fill:#F8C64B;}
	.st2{fill:#2092FD;}
	.st3{fill:#62639A;}
	.st4{fill:#1E92FF;}
	.st5{fill:#6768D6;}
	.st6{fill:#F6AD1B;}
	.st7{fill:#E79F21;}
	.st8{fill:#020202;stroke:#070707;stroke-width:1.0308;stroke-miterlimit:10;}
	.st9{fill:#F1604B;}
	.st10{fill:#070707;}
	.st11{fill:#7C7C7C;}
</style>
<g>
<g id="XMLID_30_">
	<g id="XMLID_33_">
		<path class="st0" d="M122.7,133.6v7.5c0,3-2.4,5.4-5.4,5.4H109V134v-0.4H122.7z"/>
		<path class="st1" d="M109,134v12.5H82.7c-3,0-5.4-2.4-5.4-5.4v-7.5H109V134z"/>
	</g>
	<g id="XMLID_34_">
	</g>
</g>
<g id="XMLID_7_">
	<g>
		<path class="st2" d="M139.7,91.9v36.4c0,7-5.7,12.8-12.8,12.8H110V62C126.4,62.1,139.7,75.4,139.7,91.9z"/>
		<path class="st3" d="M110,62v79H73.1c-7,0-12.7-5.7-12.7-12.8V91.9C60.3,75.4,73.7,62,90.2,62h19.6C109.8,62,109.9,62,110,62z"/>
	</g>
	<g>
	</g>
</g>
<path id="XMLID_8_" class="st4" d="M111.3,125.5H78.7c-6.3,0-11.4-5.1-11.4-11.4v-10.1c0-6.3,5.1-11.4,11.4-11.4h32.5
	c6.3,0,11.4,5.1,11.4,11.4v10.1C122.7,120.4,117.6,125.5,111.3,125.5z"/>
<path id="XMLID_9_" class="st5" d="M121.8,125.5H89.2c-6.3,0-11.4-5.1-11.4-11.4v-10.1c0-6.3,5.1-11.4,11.4-11.4h32.5
	c6.3,0,11.4,5.1,11.4,11.4v10.1C133.2,120.4,128.1,125.5,121.8,125.5z"/>
<ellipse id="XMLID_17_" class="st2" cx="109.4" cy="76.3" rx="7.6" ry="7.7"/>
<g id="XMLID_18_">
	<g id="XMLID_22_">
		<path class="st6" d="M128.1,103.9v10.1c0,6.3-5.1,11.4-11.4,11.4H110V97h6.6c5.9,0,10.4,3.4,11.4,8.6v-2.3c0-0.8-0.1-1.5-0.2-2.2
			C128,102,128.1,102.9,128.1,103.9z"/>
		<path class="st7" d="M128,103.3v2.3c-1.1-5.2-5.6-8.6-11.4-8.6H110H81.8c-3.2,0-6.2,1-8.4,2.9c1.6-4.3,5.8-7.4,10.7-7.4h32.6
			c5.3,0,9.8,3.6,11,8.6c0,0,0,0,0,0C127.9,101.8,128,102.5,128,103.3z"/>
		<path class="st7" d="M127.8,101.1c-1.3-4.9-5.7-8.6-11-8.6H84.2c-4.9,0-9.1,3.1-10.7,7.4c-0.2,0.2-0.4,0.3-0.5,0.5
			c1.4-4.8,6.1-8.5,11.7-8.5h31.7C122.2,92,126.8,95.8,127.8,101.1z"/>
		<path class="st1" d="M110,97v28.5H84.2c-6.3,0-11.4-5.1-11.4-11.4v-10.1c0-1.4,0.3-2.7,0.7-4c2.2-1.9,5.1-2.9,8.4-2.9H110z"/>
	</g>
	<g id="XMLID_23_">
	</g>
</g>
<animateMotion path="M 0 0 V 2 Z" dur="3s" repeatCount="indefinite" />
</g>
<g>
<path id="XMLID_36_" class="st8" d="M97.6,115.7c-3.9,0-7.6-0.6-10.7-1.7c-0.9-0.3-1.8,0.6-1.4,1.4c2.3,5,7.7,8.6,14.1,8.6
	c7.3,0,13.9-6.1,15.6-12.7c0.2-1-1-1.7-1.8-1.1C109.5,113,103.6,115.7,97.6,115.7z"/>
<path id="XMLID_35_" class="st9" d="M107.7,119.9c0.7,0.7-2.8,2.7-5.2,2.7c-2.4,0-3.5-1.7-3.5-2.7s0.5-2.4,2.9-2.4
	C104.3,117.5,106.4,118.5,107.7,119.9z"/>
	<animateMotion path="M 0 0 V 2 Z" dur="3s" repeatCount="indefinite" />
</g>

<ellipse id="XMLID_39_" class="st10" cx="91.2" cy="106.9" rx="3.5" ry="3.1">
<animateMotion path="M 0 0 H 1.5 Z" dur="3s" repeatCount="indefinite" />
<!-- <animateMotion path="M 0 0 V 3 Z" dur="3s" repeatCount="indefinite" /> -->
</ellipse>
<ellipse id="XMLID_41_" class="st10" cx="107.2" cy="106.9" rx="3.5" ry="3.1">
<animateMotion path="M 0 0 H 1.5 Z" dur="3s" repeatCount="indefinite" />
<!-- <animateMotion path="M 0 0 V 3 Z"  dur="3s" repeatCount="indefinite" /> -->
</ellipse>
<ellipse id="XMLID_13_" class="st11" cx="101.4" cy="155.8" rx="41.1" ry="2.8">
<animateMotion path="M 0 0 V -3 Z" dur="3s" repeatCount="indefinite" />
</ellipse>
</svg>
